<?xml version="1.0" encoding="utf-8" standalone="no"?>
<!DOCTYPE svg PUBLIC "-//W3C//DTD SVG 1.1//EN"
  "http://www.w3.org/Graphics/SVG/1.1/DTD/svg11.dtd">
<svg xmlns:xlink="http://www.w3.org/1999/xlink" width="460.8pt" height="345.6pt" viewBox="0 0 460.8 345.6" xmlns="http://www.w3.org/2000/svg" version="1.1">
 <metadata>
  <rdf:RDF xmlns:dc="http://purl.org/dc/elements/1.1/" xmlns:cc="http://creativecommons.org/ns#" xmlns:rdf="http://www.w3.org/1999/02/22-rdf-syntax-ns#">
   <cc:Work>
    <dc:type rdf:resource="http://purl.org/dc/dcmitype/StillImage"/>
    <dc:date>2024-09-05T20:01:07.740013</dc:date>
    <dc:format>image/svg+xml</dc:format>
    <dc:creator>
     <cc:Agent>
      <dc:title>Matplotlib v3.7.1, https://matplotlib.org/</dc:title>
     </cc:Agent>
    </dc:creator>
   </cc:Work>
  </rdf:RDF>
 </metadata>
 <defs>
  <style type="text/css">*{stroke-linejoin: round; stroke-linecap: butt}</style>
 </defs>
 <g id="figure_1">
  <g id="patch_1">
   <path d="M 0 345.6 
L 460.8 345.6 
L 460.8 0 
L 0 0 
z
" style="fill: #ffffff"/>
  </g>
  <g id="axes_1">
   <g id="patch_2">
    <path d="M 187.642063 93.417223 
Q 171.493086 125.89198 183.395868 157.102717 
" clip-path="url(#pf690138d7b)" style="fill: none; stroke: #ffb6b6; stroke-width: 1.21; stroke-linecap: round"/>
    <path d="M 184.060936 150.427563 
L 183.395868 157.102717 
L 178.454785 152.56557 
z
" clip-path="url(#pf690138d7b)" style="fill: #ffb6b6; stroke: #ffb6b6; stroke-width: 1.21; stroke-linecap: round"/>
   </g>
   <g id="patch_3">
    <path d="M 187.494616 93.330598 
Q 145.175368 170.383279 182.558831 246.188049 
" clip-path="url(#pf690138d7b)" style="fill: none; stroke: #eeeeff; stroke-width: 1.244514; stroke-linecap: round"/>
    <path d="M 182.595668 239.479946 
L 182.558831 246.188049 
L 177.214451 242.133717 
z
" clip-path="url(#pf690138d7b)" style="fill: #eeeeff; stroke: #eeeeff; stroke-width: 1.244514; stroke-linecap: round"/>
   </g>
   <g id="patch_4">
    <path d="M 195.678793 93.5709 
Q 231.903482 162.329243 302.513168 172.245138 
" clip-path="url(#pf690138d7b)" style="fill: none; stroke: #ff1616; stroke-width: 4; stroke-linecap: round"/>
    <path d="M 296.988675 168.439882 
L 302.513168 172.245138 
L 296.154268 174.38158 
z
" clip-path="url(#pf690138d7b)" style="fill: #ff1616; stroke: #ff1616; stroke-width: 4; stroke-linecap: round"/>
   </g>
   <g id="patch_5">
    <path d="M 195.973937 166.934777 
Q 212.122914 134.46002 200.509648 104.008434 
" clip-path="url(#pf690138d7b)" style="fill: none; stroke: #ffe6e6; stroke-width: 1.936708; stroke-linecap: round"/>
    <path d="M 199.84458 110.683588 
L 200.509648 104.008434 
L 205.450731 108.545581 
z
" clip-path="url(#pf690138d7b)" style="fill: #ffe6e6; stroke: #ffe6e6; stroke-width: 1.936708; stroke-linecap: round"/>
   </g>
   <g id="patch_6">
    <path d="M 187.642063 182.121223 
Q 171.493086 214.59598 183.714962 246.643425 
" clip-path="url(#pf690138d7b)" style="fill: none; stroke: #fffefe; stroke-width: 0.40905; stroke-linecap: round"/>
    <path d="M 184.38003 239.968271 
L 183.714962 246.643425 
L 178.773879 242.106279 
z
" clip-path="url(#pf690138d7b)" style="fill: #fffefe; stroke: #fffefe; stroke-width: 0.40905; stroke-linecap: round"/>
   </g>
   <g id="patch_7">
    <path d="M 196.121384 255.725402 
Q 238.440632 178.672721 200.619474 101.980409 
" clip-path="url(#pf690138d7b)" style="fill: none; stroke: #ffdcdc; stroke-width: 0.359388; stroke-linecap: round"/>
    <path d="M 200.582636 108.688512 
L 200.619474 101.980409 
L 205.963853 106.03474 
z
" clip-path="url(#pf690138d7b)" style="fill: #ffdcdc; stroke: #ffdcdc; stroke-width: 0.359388; stroke-linecap: round"/>
   </g>
   <g id="patch_8">
    <path d="M 195.973937 255.638777 
Q 212.122914 223.16402 200.003678 191.385711 
" clip-path="url(#pf690138d7b)" style="fill: none; stroke: #ffa8a8; stroke-width: 0.666685; stroke-linecap: round"/>
    <path d="M 199.33861 198.060866 
L 200.003678 191.385711 
L 204.944761 195.922858 
z
" clip-path="url(#pf690138d7b)" style="fill: #ffa8a8; stroke: #ffa8a8; stroke-width: 0.666685; stroke-linecap: round"/>
   </g>
   <g id="patch_9">
    <path d="M 320.698063 93.417223 
Q 304.549086 125.89198 316.432112 157.050913 
" clip-path="url(#pf690138d7b)" style="fill: none; stroke: #fefeff; stroke-width: 1.259591; stroke-linecap: round"/>
    <path d="M 317.097179 150.375758 
L 316.432112 157.050913 
L 311.491029 152.513766 
z
" clip-path="url(#pf690138d7b)" style="fill: #fefeff; stroke: #fefeff; stroke-width: 1.259591; stroke-linecap: round"/>
   </g>
   <g id="patch_10">
    <path d="M 320.550616 93.330598 
Q 278.231368 170.383279 315.603241 246.164547 
" clip-path="url(#pf690138d7b)" style="fill: none; stroke: #e4e4ff; stroke-width: 1.267951; stroke-linecap: round"/>
    <path d="M 315.640078 239.456444 
L 315.603241 246.164547 
L 310.258861 242.110216 
z
" clip-path="url(#pf690138d7b)" style="fill: #e4e4ff; stroke: #e4e4ff; stroke-width: 1.267951; stroke-linecap: round"/>
   </g>
   <g id="patch_11">
    <path d="M 329.029937 166.934777 
Q 345.178914 134.46002 333.57174 104.024408 
" clip-path="url(#pf690138d7b)" style="fill: none; stroke: #ffe6e6; stroke-width: 1.951999; stroke-linecap: round"/>
    <path d="M 332.906672 110.699563 
L 333.57174 104.024408 
L 338.512823 108.561555 
z
" clip-path="url(#pf690138d7b)" style="fill: #ffe6e6; stroke: #ffe6e6; stroke-width: 1.951999; stroke-linecap: round"/>
   </g>
   <g id="patch_12">
    <path d="M 320.698063 182.121223 
Q 304.549086 214.59598 316.78057 246.668618 
" clip-path="url(#pf690138d7b)" style="fill: none; stroke: #ff9696; stroke-width: 0.384934; stroke-linecap: round"/>
    <path d="M 317.445638 239.993464 
L 316.78057 246.668618 
L 311.839487 242.131472 
z
" clip-path="url(#pf690138d7b)" style="fill: #ff9696; stroke: #ff9696; stroke-width: 0.384934; stroke-linecap: round"/>
   </g>
   <g id="patch_13">
    <path d="M 323.842995 254.628888 
Q 308.70948 141.890116 212.183374 95.050311 
" clip-path="url(#pf690138d7b)" style="fill: none; stroke: #ff9a9a; stroke-width: 3.907071; stroke-linecap: round"/>
    <path d="M 216.271686 100.368741 
L 212.183374 95.050311 
L 218.891105 94.970719 
z
" clip-path="url(#pf690138d7b)" style="fill: #ff9a9a; stroke: #ff9a9a; stroke-width: 3.907071; stroke-linecap: round"/>
   </g>
   <g id="patch_14">
    <path d="M 317.323564 258.964134 
Q 262.523503 229.810795 211.677424 253.020122 
" clip-path="url(#pf690138d7b)" style="fill: none; stroke: #0000ff; stroke-width: 3.887564; stroke-linecap: round"/>
    <path d="M 218.381417 253.257761 
L 211.677424 253.020122 
L 215.889931 247.799511 
z
" clip-path="url(#pf690138d7b)" style="fill: #0000ff; stroke: #0000ff; stroke-width: 3.887564; stroke-linecap: round"/>
   </g>
   <g id="patch_15">
    <path d="M 329.177384 255.725402 
Q 371.496632 178.672721 333.673583 101.976575 
" clip-path="url(#pf690138d7b)" style="fill: none; stroke: #ffc6c6; stroke-width: 0.355565; stroke-linecap: round"/>
    <path d="M 333.636746 108.684678 
L 333.673583 101.976575 
L 339.017963 106.030907 
z
" clip-path="url(#pf690138d7b)" style="fill: #ffc6c6; stroke: #ffc6c6; stroke-width: 0.355565; stroke-linecap: round"/>
   </g>
   <g id="patch_16">
    <path d="M 329.029937 255.638777 
Q 345.178914 223.16402 333.055237 191.374066 
" clip-path="url(#pf690138d7b)" style="fill: none; stroke: #ffd4d4; stroke-width: 0.655537; stroke-linecap: round"/>
    <path d="M 332.390169 198.049221 
L 333.055237 191.374066 
L 337.99632 195.911213 
z
" clip-path="url(#pf690138d7b)" style="fill: #ffd4d4; stroke: #ffd4d4; stroke-width: 0.655537; stroke-linecap: round"/>
   </g>
   <g id="patch_17">
    <path d="M 147.456 81.3888 
L 149.6736 85.824 
L 147.500352 85.824 
L 147.500352 85.824 
L 147.411648 85.824 
L 147.411648 85.824 
L 145.2384 85.824 
z
" clip-path="url(#pf690138d7b)" style="fill: #ff8282; stroke: #ff8282; stroke-linejoin: miter"/>
   </g>
   <g id="patch_18">
    <path d="M 165.1968 103.5648 
C 169.901715 103.5648 174.414563 101.695517 177.74144 98.36864 
C 181.068317 95.041763 182.9376 90.528915 182.9376 85.824 
C 182.9376 81.119085 181.068317 76.606237 177.74144 73.27936 
C 174.414563 69.952483 169.901715 68.0832 165.1968 68.0832 
C 160.491885 68.0832 155.979037 69.952483 152.65216 73.27936 
C 149.325283 76.606237 147.456 81.119085 147.456 85.824 
C 147.456 90.528915 149.325283 95.041763 152.65216 98.36864 
C 155.979037 101.695517 160.491885 103.5648 165.1968 103.5648 
L 165.1968 103.5648 
z
" clip-path="url(#pf690138d7b)" style="fill: none; stroke: #ff8282; stroke-width: 2.305206; stroke-linejoin: miter"/>
   </g>
   <g id="patch_19">
    <path d="M 147.456 170.0928 
L 149.6736 174.528 
L 147.500352 174.528 
L 147.500352 174.528 
L 147.411648 174.528 
L 147.411648 174.528 
L 145.2384 174.528 
z
" clip-path="url(#pf690138d7b)" style="fill: #ffe4e4; stroke: #ffe4e4; stroke-linejoin: miter"/>
   </g>
   <g id="patch_20">
    <path d="M 165.1968 192.2688 
C 169.901715 192.2688 174.414563 190.399517 177.74144 187.07264 
C 181.068317 183.745763 182.9376 179.232915 182.9376 174.528 
C 182.9376 169.823085 181.068317 165.310237 177.74144 161.98336 
C 174.414563 158.656483 169.901715 156.7872 165.1968 156.7872 
C 160.491885 156.7872 155.979037 158.656483 152.65216 161.98336 
C 149.325283 165.310237 147.456 169.823085 147.456 174.528 
C 147.456 179.232915 149.325283 183.745763 152.65216 187.07264 
C 155.979037 190.399517 160.491885 192.2688 165.1968 192.2688 
L 165.1968 192.2688 
z
" clip-path="url(#pf690138d7b)" style="fill: none; stroke: #ffe4e4; stroke-width: 2.098198; stroke-linejoin: miter"/>
   </g>
   <g id="patch_21">
    <path d="M 147.456 258.7968 
L 149.6736 263.232 
L 147.500352 263.232 
L 147.500352 263.232 
L 147.411648 263.232 
L 147.411648 263.232 
L 145.2384 263.232 
z
" clip-path="url(#pf690138d7b)" style="fill: #f0f0ff; stroke: #f0f0ff; stroke-linejoin: miter"/>
   </g>
   <g id="patch_22">
    <path d="M 165.1968 280.9728 
C 169.901715 280.9728 174.414563 279.103517 177.74144 275.77664 
C 181.068317 272.449763 182.9376 267.936915 182.9376 263.232 
C 182.9376 258.527085 181.068317 254.014237 177.74144 250.68736 
C 174.414563 247.360483 169.901715 245.4912 165.1968 245.4912 
C 160.491885 245.4912 155.979037 247.360483 152.65216 250.68736 
C 149.325283 254.014237 147.456 258.527085 147.456 263.232 
C 147.456 267.936915 149.325283 272.449763 152.65216 275.77664 
C 155.979037 279.103517 160.491885 280.9728 165.1968 280.9728 
L 165.1968 280.9728 
z
" clip-path="url(#pf690138d7b)" style="fill: none; stroke: #f0f0ff; stroke-width: 1.165626; stroke-linejoin: miter"/>
   </g>
   <g id="patch_23">
    <path d="M 369.216 90.2592 
L 366.9984 85.824 
L 369.171648 85.824 
L 369.171648 85.824 
L 369.260352 85.824 
L 369.260352 85.824 
L 371.4336 85.824 
z
" clip-path="url(#pf690138d7b)" style="fill: #ffb2b2; stroke: #ffb2b2; stroke-linejoin: miter"/>
   </g>
   <g id="patch_24">
    <path d="M 351.4752 103.5648 
C 356.180115 103.5648 360.692963 101.695517 364.01984 98.36864 
C 367.346717 95.041763 369.216 90.528915 369.216 85.824 
C 369.216 81.119085 367.346717 76.606237 364.01984 73.27936 
C 360.692963 69.952483 356.180115 68.0832 351.4752 68.0832 
C 346.770285 68.0832 342.257437 69.952483 338.93056 73.27936 
C 335.603683 76.606237 333.7344 81.119085 333.7344 85.824 
C 333.7344 90.528915 335.603683 95.041763 338.93056 98.36864 
C 342.257437 101.695517 346.770285 103.5648 351.4752 103.5648 
L 351.4752 103.5648 
z
" clip-path="url(#pf690138d7b)" style="fill: none; stroke: #ffb2b2; stroke-width: 2.320248; stroke-linejoin: miter"/>
   </g>
   <g id="patch_25">
    <path d="M 369.216 178.9632 
L 366.9984 174.528 
L 369.171648 174.528 
L 369.171648 174.528 
L 369.260352 174.528 
L 369.260352 174.528 
L 371.4336 174.528 
z
" clip-path="url(#pf690138d7b)" style="fill: #ffcaca; stroke: #ffcaca; stroke-linejoin: miter"/>
   </g>
   <g id="patch_26">
    <path d="M 351.4752 192.2688 
C 356.180115 192.2688 360.692963 190.399517 364.01984 187.07264 
C 367.346717 183.745763 369.216 179.232915 369.216 174.528 
C 369.216 169.823085 367.346717 165.310237 364.01984 161.98336 
C 360.692963 158.656483 356.180115 156.7872 351.4752 156.7872 
C 346.770285 156.7872 342.257437 158.656483 338.93056 161.98336 
C 335.603683 165.310237 333.7344 169.823085 333.7344 174.528 
C 333.7344 179.232915 335.603683 183.745763 338.93056 187.07264 
C 342.257437 190.399517 346.770285 192.2688 351.4752 192.2688 
L 351.4752 192.2688 
z
" clip-path="url(#pf690138d7b)" style="fill: none; stroke: #ffcaca; stroke-width: 2.143359; stroke-linejoin: miter"/>
   </g>
   <g id="patch_27">
    <path d="M 369.216 267.6672 
L 366.9984 263.232 
L 369.171648 263.232 
L 369.171648 263.232 
L 369.260352 263.232 
L 369.260352 263.232 
L 371.4336 263.232 
z
" clip-path="url(#pf690138d7b)" style="fill: #ffb6b6; stroke: #ffb6b6; stroke-linejoin: miter"/>
   </g>
   <g id="patch_28">
    <path d="M 351.4752 280.9728 
C 356.180115 280.9728 360.692963 279.103517 364.01984 275.77664 
C 367.346717 272.449763 369.216 267.936915 369.216 263.232 
C 369.216 258.527085 367.346717 254.014237 364.01984 250.68736 
C 360.692963 247.360483 356.180115 245.4912 351.4752 245.4912 
C 346.770285 245.4912 342.257437 247.360483 338.93056 250.68736 
C 335.603683 254.014237 333.7344 258.527085 333.7344 263.232 
C 333.7344 267.936915 335.603683 272.449763 338.93056 275.77664 
C 342.257437 279.103517 346.770285 280.9728 351.4752 280.9728 
L 351.4752 280.9728 
z
" clip-path="url(#pf690138d7b)" style="fill: none; stroke: #ffb6b6; stroke-width: 1.12854; stroke-linejoin: miter"/>
   </g>
   <g id="PathCollection_1">
    <defs>
     <path id="mc301751359" d="M 0 19.364917 
C 5.135636 19.364917 10.061621 17.324507 13.693064 13.693064 
C 17.324507 10.061621 19.364917 5.135636 19.364917 0 
C 19.364917 -5.135636 17.324507 -10.061621 13.693064 -13.693064 
C 10.061621 -17.324507 5.135636 -19.364917 0 -19.364917 
C -5.135636 -19.364917 -10.061621 -17.324507 -13.693064 -13.693064 
C -17.324507 -10.061621 -19.364917 -5.135636 -19.364917 0 
C -19.364917 5.135636 -17.324507 10.061621 -13.693064 13.693064 
C -10.061621 17.324507 -5.135636 19.364917 0 19.364917 
z
" style="stroke: #000000"/>
    </defs>
    <g clip-path="url(#pf690138d7b)">
     <use xlink:href="#mc301751359" x="191.808" y="85.824" style="fill: #d3d3d3; stroke: #000000"/>
     <use xlink:href="#mc301751359" x="191.808" y="174.528" style="fill: #d3d3d3; stroke: #000000"/>
     <use xlink:href="#mc301751359" x="191.808" y="263.232" style="fill: #d3d3d3; stroke: #000000"/>
     <use xlink:href="#mc301751359" x="324.864" y="85.824" style="fill: #d3d3d3; stroke: #000000"/>
     <use xlink:href="#mc301751359" x="324.864" y="174.528" style="fill: #d3d3d3; stroke: #000000"/>
     <use xlink:href="#mc301751359" x="324.864" y="263.232" style="fill: #d3d3d3; stroke: #000000"/>
    </g>
   </g>
   <g id="text_1">
    <g clip-path="url(#pf690138d7b)">
     <!-- L2/3 -->
     <g transform="translate(179.837688 88.583375) scale(0.1 -0.1)">
      <defs>
       <path id="DejaVuSans-Bold-4c" d="M 588 4666 
L 1791 4666 
L 1791 909 
L 3903 909 
L 3903 0 
L 588 0 
L 588 4666 
z
" transform="scale(0.015625)"/>
       <path id="DejaVuSans-Bold-32" d="M 1844 884 
L 3897 884 
L 3897 0 
L 506 0 
L 506 884 
L 2209 2388 
Q 2438 2594 2547 2791 
Q 2656 2988 2656 3200 
Q 2656 3528 2436 3728 
Q 2216 3928 1850 3928 
Q 1569 3928 1234 3808 
Q 900 3688 519 3450 
L 519 4475 
Q 925 4609 1322 4679 
Q 1719 4750 2100 4750 
Q 2938 4750 3402 4381 
Q 3866 4013 3866 3353 
Q 3866 2972 3669 2642 
Q 3472 2313 2841 1759 
L 1844 884 
z
" transform="scale(0.015625)"/>
       <path id="DejaVuSans-Bold-2f" d="M 1644 4666 
L 2338 4666 
L 691 -594 
L 0 -594 
L 1644 4666 
z
" transform="scale(0.015625)"/>
       <path id="DejaVuSans-Bold-33" d="M 2981 2516 
Q 3453 2394 3698 2092 
Q 3944 1791 3944 1325 
Q 3944 631 3412 270 
Q 2881 -91 1863 -91 
Q 1503 -91 1142 -33 
Q 781 25 428 141 
L 428 1069 
Q 766 900 1098 814 
Q 1431 728 1753 728 
Q 2231 728 2486 893 
Q 2741 1059 2741 1369 
Q 2741 1688 2480 1852 
Q 2219 2016 1709 2016 
L 1228 2016 
L 1228 2791 
L 1734 2791 
Q 2188 2791 2409 2933 
Q 2631 3075 2631 3366 
Q 2631 3634 2415 3781 
Q 2200 3928 1806 3928 
Q 1516 3928 1219 3862 
Q 922 3797 628 3669 
L 628 4550 
Q 984 4650 1334 4700 
Q 1684 4750 2022 4750 
Q 2931 4750 3382 4451 
Q 3834 4153 3834 3553 
Q 3834 3144 3618 2883 
Q 3403 2622 2981 2516 
z
" transform="scale(0.015625)"/>
      </defs>
      <use xlink:href="#DejaVuSans-Bold-4c"/>
      <use xlink:href="#DejaVuSans-Bold-32" x="63.720703"/>
      <use xlink:href="#DejaVuSans-Bold-2f" x="133.300781"/>
      <use xlink:href="#DejaVuSans-Bold-33" x="169.824219"/>
     </g>
    </g>
   </g>
   <g id="text_2">
    <g clip-path="url(#pf690138d7b)">
     <!-- L4 -->
     <g transform="translate(185.143156 177.287375) scale(0.1 -0.1)">
      <defs>
       <path id="DejaVuSans-Bold-34" d="M 2356 3675 
L 1038 1722 
L 2356 1722 
L 2356 3675 
z
M 2156 4666 
L 3494 4666 
L 3494 1722 
L 4159 1722 
L 4159 850 
L 3494 850 
L 3494 0 
L 2356 0 
L 2356 850 
L 288 850 
L 288 1881 
L 2156 4666 
z
" transform="scale(0.015625)"/>
      </defs>
      <use xlink:href="#DejaVuSans-Bold-4c"/>
      <use xlink:href="#DejaVuSans-Bold-34" x="63.720703"/>
     </g>
    </g>
   </g>
   <g id="text_3">
    <g clip-path="url(#pf690138d7b)">
     <!-- L5 -->
     <g transform="translate(185.143156 265.991375) scale(0.1 -0.1)">
      <defs>
       <path id="DejaVuSans-Bold-35" d="M 678 4666 
L 3669 4666 
L 3669 3781 
L 1638 3781 
L 1638 3059 
Q 1775 3097 1914 3117 
Q 2053 3138 2203 3138 
Q 3056 3138 3531 2711 
Q 4006 2284 4006 1522 
Q 4006 766 3489 337 
Q 2972 -91 2053 -91 
Q 1656 -91 1267 -14 
Q 878 63 494 219 
L 494 1166 
Q 875 947 1217 837 
Q 1559 728 1863 728 
Q 2300 728 2551 942 
Q 2803 1156 2803 1522 
Q 2803 1891 2551 2103 
Q 2300 2316 1863 2316 
Q 1603 2316 1309 2248 
Q 1016 2181 678 2041 
L 678 4666 
z
" transform="scale(0.015625)"/>
      </defs>
      <use xlink:href="#DejaVuSans-Bold-4c"/>
      <use xlink:href="#DejaVuSans-Bold-35" x="63.720703"/>
     </g>
    </g>
   </g>
   <g id="text_4">
    <g clip-path="url(#pf690138d7b)">
     <!-- L2/3 -->
     <g transform="translate(312.893688 88.583375) scale(0.1 -0.1)">
      <use xlink:href="#DejaVuSans-Bold-4c"/>
      <use xlink:href="#DejaVuSans-Bold-32" x="63.720703"/>
      <use xlink:href="#DejaVuSans-Bold-2f" x="133.300781"/>
      <use xlink:href="#DejaVuSans-Bold-33" x="169.824219"/>
     </g>
    </g>
   </g>
   <g id="text_5">
    <g clip-path="url(#pf690138d7b)">
     <!-- L4 -->
     <g transform="translate(318.199156 177.287375) scale(0.1 -0.1)">
      <use xlink:href="#DejaVuSans-Bold-4c"/>
      <use xlink:href="#DejaVuSans-Bold-34" x="63.720703"/>
     </g>
    </g>
   </g>
   <g id="text_6">
    <g clip-path="url(#pf690138d7b)">
     <!-- L5 -->
     <g transform="translate(318.199156 265.991375) scale(0.1 -0.1)">
      <use xlink:href="#DejaVuSans-Bold-4c"/>
      <use xlink:href="#DejaVuSans-Bold-35" x="63.720703"/>
     </g>
    </g>
   </g>
   <g id="text_7">
    <!-- LM -->
    <g transform="translate(315.9936 307.584) scale(0.12 -0.12)">
     <defs>
      <path id="DejaVuSans-Bold-4d" d="M 588 4666 
L 2119 4666 
L 3181 2169 
L 4250 4666 
L 5778 4666 
L 5778 0 
L 4641 0 
L 4641 3413 
L 3566 897 
L 2803 897 
L 1728 3413 
L 1728 0 
L 588 0 
L 588 4666 
z
" transform="scale(0.015625)"/>
     </defs>
     <use xlink:href="#DejaVuSans-Bold-4c"/>
     <use xlink:href="#DejaVuSans-Bold-4d" x="63.720703"/>
    </g>
   </g>
   <g id="text_8">
    <!-- V1 -->
    <g transform="translate(182.9376 307.584) scale(0.12 -0.12)">
     <defs>
      <path id="DejaVuSans-Bold-56" d="M 31 4666 
L 1241 4666 
L 2478 1222 
L 3713 4666 
L 4922 4666 
L 3194 0 
L 1759 0 
L 31 4666 
z
" transform="scale(0.015625)"/>
      <path id="DejaVuSans-Bold-31" d="M 750 831 
L 1813 831 
L 1813 3847 
L 722 3622 
L 722 4441 
L 1806 4666 
L 2950 4666 
L 2950 831 
L 4013 831 
L 4013 0 
L 750 0 
L 750 831 
z
" transform="scale(0.015625)"/>
     </defs>
     <use xlink:href="#DejaVuSans-Bold-56"/>
     <use xlink:href="#DejaVuSans-Bold-31" x="77.392578"/>
    </g>
   </g>
   <g id="text_9">
    <!-- Familiar-Omission-Sparse vs Novel-Omission-Sparse -->
    <g transform="translate(80.01375 35.472) scale(0.12 -0.12)">
     <defs>
      <path id="DejaVuSans-46" d="M 628 4666 
L 3309 4666 
L 3309 4134 
L 1259 4134 
L 1259 2759 
L 3109 2759 
L 3109 2228 
L 1259 2228 
L 1259 0 
L 628 0 
L 628 4666 
z
" transform="scale(0.015625)"/>
      <path id="DejaVuSans-61" d="M 2194 1759 
Q 1497 1759 1228 1600 
Q 959 1441 959 1056 
Q 959 750 1161 570 
Q 1363 391 1709 391 
Q 2188 391 2477 730 
Q 2766 1069 2766 1631 
L 2766 1759 
L 2194 1759 
z
M 3341 1997 
L 3341 0 
L 2766 0 
L 2766 531 
Q 2569 213 2275 61 
Q 1981 -91 1556 -91 
Q 1019 -91 701 211 
Q 384 513 384 1019 
Q 384 1609 779 1909 
Q 1175 2209 1959 2209 
L 2766 2209 
L 2766 2266 
Q 2766 2663 2505 2880 
Q 2244 3097 1772 3097 
Q 1472 3097 1187 3025 
Q 903 2953 641 2809 
L 641 3341 
Q 956 3463 1253 3523 
Q 1550 3584 1831 3584 
Q 2591 3584 2966 3190 
Q 3341 2797 3341 1997 
z
" transform="scale(0.015625)"/>
      <path id="DejaVuSans-6d" d="M 3328 2828 
Q 3544 3216 3844 3400 
Q 4144 3584 4550 3584 
Q 5097 3584 5394 3201 
Q 5691 2819 5691 2113 
L 5691 0 
L 5113 0 
L 5113 2094 
Q 5113 2597 4934 2840 
Q 4756 3084 4391 3084 
Q 3944 3084 3684 2787 
Q 3425 2491 3425 1978 
L 3425 0 
L 2847 0 
L 2847 2094 
Q 2847 2600 2669 2842 
Q 2491 3084 2119 3084 
Q 1678 3084 1418 2786 
Q 1159 2488 1159 1978 
L 1159 0 
L 581 0 
L 581 3500 
L 1159 3500 
L 1159 2956 
Q 1356 3278 1631 3431 
Q 1906 3584 2284 3584 
Q 2666 3584 2933 3390 
Q 3200 3197 3328 2828 
z
" transform="scale(0.015625)"/>
      <path id="DejaVuSans-69" d="M 603 3500 
L 1178 3500 
L 1178 0 
L 603 0 
L 603 3500 
z
M 603 4863 
L 1178 4863 
L 1178 4134 
L 603 4134 
L 603 4863 
z
" transform="scale(0.015625)"/>
      <path id="DejaVuSans-6c" d="M 603 4863 
L 1178 4863 
L 1178 0 
L 603 0 
L 603 4863 
z
" transform="scale(0.015625)"/>
      <path id="DejaVuSans-72" d="M 2631 2963 
Q 2534 3019 2420 3045 
Q 2306 3072 2169 3072 
Q 1681 3072 1420 2755 
Q 1159 2438 1159 1844 
L 1159 0 
L 581 0 
L 581 3500 
L 1159 3500 
L 1159 2956 
Q 1341 3275 1631 3429 
Q 1922 3584 2338 3584 
Q 2397 3584 2469 3576 
Q 2541 3569 2628 3553 
L 2631 2963 
z
" transform="scale(0.015625)"/>
      <path id="DejaVuSans-2d" d="M 313 2009 
L 1997 2009 
L 1997 1497 
L 313 1497 
L 313 2009 
z
" transform="scale(0.015625)"/>
      <path id="DejaVuSans-4f" d="M 2522 4238 
Q 1834 4238 1429 3725 
Q 1025 3213 1025 2328 
Q 1025 1447 1429 934 
Q 1834 422 2522 422 
Q 3209 422 3611 934 
Q 4013 1447 4013 2328 
Q 4013 3213 3611 3725 
Q 3209 4238 2522 4238 
z
M 2522 4750 
Q 3503 4750 4090 4092 
Q 4678 3434 4678 2328 
Q 4678 1225 4090 567 
Q 3503 -91 2522 -91 
Q 1538 -91 948 565 
Q 359 1222 359 2328 
Q 359 3434 948 4092 
Q 1538 4750 2522 4750 
z
" transform="scale(0.015625)"/>
      <path id="DejaVuSans-73" d="M 2834 3397 
L 2834 2853 
Q 2591 2978 2328 3040 
Q 2066 3103 1784 3103 
Q 1356 3103 1142 2972 
Q 928 2841 928 2578 
Q 928 2378 1081 2264 
Q 1234 2150 1697 2047 
L 1894 2003 
Q 2506 1872 2764 1633 
Q 3022 1394 3022 966 
Q 3022 478 2636 193 
Q 2250 -91 1575 -91 
Q 1294 -91 989 -36 
Q 684 19 347 128 
L 347 722 
Q 666 556 975 473 
Q 1284 391 1588 391 
Q 1994 391 2212 530 
Q 2431 669 2431 922 
Q 2431 1156 2273 1281 
Q 2116 1406 1581 1522 
L 1381 1569 
Q 847 1681 609 1914 
Q 372 2147 372 2553 
Q 372 3047 722 3315 
Q 1072 3584 1716 3584 
Q 2034 3584 2315 3537 
Q 2597 3491 2834 3397 
z
" transform="scale(0.015625)"/>
      <path id="DejaVuSans-6f" d="M 1959 3097 
Q 1497 3097 1228 2736 
Q 959 2375 959 1747 
Q 959 1119 1226 758 
Q 1494 397 1959 397 
Q 2419 397 2687 759 
Q 2956 1122 2956 1747 
Q 2956 2369 2687 2733 
Q 2419 3097 1959 3097 
z
M 1959 3584 
Q 2709 3584 3137 3096 
Q 3566 2609 3566 1747 
Q 3566 888 3137 398 
Q 2709 -91 1959 -91 
Q 1206 -91 779 398 
Q 353 888 353 1747 
Q 353 2609 779 3096 
Q 1206 3584 1959 3584 
z
" transform="scale(0.015625)"/>
      <path id="DejaVuSans-6e" d="M 3513 2113 
L 3513 0 
L 2938 0 
L 2938 2094 
Q 2938 2591 2744 2837 
Q 2550 3084 2163 3084 
Q 1697 3084 1428 2787 
Q 1159 2491 1159 1978 
L 1159 0 
L 581 0 
L 581 3500 
L 1159 3500 
L 1159 2956 
Q 1366 3272 1645 3428 
Q 1925 3584 2291 3584 
Q 2894 3584 3203 3211 
Q 3513 2838 3513 2113 
z
" transform="scale(0.015625)"/>
      <path id="DejaVuSans-53" d="M 3425 4513 
L 3425 3897 
Q 3066 4069 2747 4153 
Q 2428 4238 2131 4238 
Q 1616 4238 1336 4038 
Q 1056 3838 1056 3469 
Q 1056 3159 1242 3001 
Q 1428 2844 1947 2747 
L 2328 2669 
Q 3034 2534 3370 2195 
Q 3706 1856 3706 1288 
Q 3706 609 3251 259 
Q 2797 -91 1919 -91 
Q 1588 -91 1214 -16 
Q 841 59 441 206 
L 441 856 
Q 825 641 1194 531 
Q 1563 422 1919 422 
Q 2459 422 2753 634 
Q 3047 847 3047 1241 
Q 3047 1584 2836 1778 
Q 2625 1972 2144 2069 
L 1759 2144 
Q 1053 2284 737 2584 
Q 422 2884 422 3419 
Q 422 4038 858 4394 
Q 1294 4750 2059 4750 
Q 2388 4750 2728 4690 
Q 3069 4631 3425 4513 
z
" transform="scale(0.015625)"/>
      <path id="DejaVuSans-70" d="M 1159 525 
L 1159 -1331 
L 581 -1331 
L 581 3500 
L 1159 3500 
L 1159 2969 
Q 1341 3281 1617 3432 
Q 1894 3584 2278 3584 
Q 2916 3584 3314 3078 
Q 3713 2572 3713 1747 
Q 3713 922 3314 415 
Q 2916 -91 2278 -91 
Q 1894 -91 1617 61 
Q 1341 213 1159 525 
z
M 3116 1747 
Q 3116 2381 2855 2742 
Q 2594 3103 2138 3103 
Q 1681 3103 1420 2742 
Q 1159 2381 1159 1747 
Q 1159 1113 1420 752 
Q 1681 391 2138 391 
Q 2594 391 2855 752 
Q 3116 1113 3116 1747 
z
" transform="scale(0.015625)"/>
      <path id="DejaVuSans-65" d="M 3597 1894 
L 3597 1613 
L 953 1613 
Q 991 1019 1311 708 
Q 1631 397 2203 397 
Q 2534 397 2845 478 
Q 3156 559 3463 722 
L 3463 178 
Q 3153 47 2828 -22 
Q 2503 -91 2169 -91 
Q 1331 -91 842 396 
Q 353 884 353 1716 
Q 353 2575 817 3079 
Q 1281 3584 2069 3584 
Q 2775 3584 3186 3129 
Q 3597 2675 3597 1894 
z
M 3022 2063 
Q 3016 2534 2758 2815 
Q 2500 3097 2075 3097 
Q 1594 3097 1305 2825 
Q 1016 2553 972 2059 
L 3022 2063 
z
" transform="scale(0.015625)"/>
      <path id="DejaVuSans-20" transform="scale(0.015625)"/>
      <path id="DejaVuSans-76" d="M 191 3500 
L 800 3500 
L 1894 563 
L 2988 3500 
L 3597 3500 
L 2284 0 
L 1503 0 
L 191 3500 
z
" transform="scale(0.015625)"/>
      <path id="DejaVuSans-4e" d="M 628 4666 
L 1478 4666 
L 3547 763 
L 3547 4666 
L 4159 4666 
L 4159 0 
L 3309 0 
L 1241 3903 
L 1241 0 
L 628 0 
L 628 4666 
z
" transform="scale(0.015625)"/>
     </defs>
     <use xlink:href="#DejaVuSans-46"/>
     <use xlink:href="#DejaVuSans-61" x="48.394531"/>
     <use xlink:href="#DejaVuSans-6d" x="109.673828"/>
     <use xlink:href="#DejaVuSans-69" x="207.085938"/>
     <use xlink:href="#DejaVuSans-6c" x="234.869141"/>
     <use xlink:href="#DejaVuSans-69" x="262.652344"/>
     <use xlink:href="#DejaVuSans-61" x="290.435547"/>
     <use xlink:href="#DejaVuSans-72" x="351.714844"/>
     <use xlink:href="#DejaVuSans-2d" x="386.453125"/>
     <use xlink:href="#DejaVuSans-4f" x="425.287109"/>
     <use xlink:href="#DejaVuSans-6d" x="503.998047"/>
     <use xlink:href="#DejaVuSans-69" x="601.410156"/>
     <use xlink:href="#DejaVuSans-73" x="629.193359"/>
     <use xlink:href="#DejaVuSans-73" x="681.292969"/>
     <use xlink:href="#DejaVuSans-69" x="733.392578"/>
     <use xlink:href="#DejaVuSans-6f" x="761.175781"/>
     <use xlink:href="#DejaVuSans-6e" x="822.357422"/>
     <use xlink:href="#DejaVuSans-2d" x="885.736328"/>
     <use xlink:href="#DejaVuSans-53" x="921.820312"/>
     <use xlink:href="#DejaVuSans-70" x="985.296875"/>
     <use xlink:href="#DejaVuSans-61" x="1048.773438"/>
     <use xlink:href="#DejaVuSans-72" x="1110.052734"/>
     <use xlink:href="#DejaVuSans-73" x="1151.166016"/>
     <use xlink:href="#DejaVuSans-65" x="1203.265625"/>
     <use xlink:href="#DejaVuSans-20" x="1264.789062"/>
     <use xlink:href="#DejaVuSans-76" x="1296.576172"/>
     <use xlink:href="#DejaVuSans-73" x="1355.755859"/>
     <use xlink:href="#DejaVuSans-20" x="1407.855469"/>
     <use xlink:href="#DejaVuSans-4e" x="1439.642578"/>
     <use xlink:href="#DejaVuSans-6f" x="1514.447266"/>
     <use xlink:href="#DejaVuSans-76" x="1575.628906"/>
     <use xlink:href="#DejaVuSans-65" x="1634.808594"/>
     <use xlink:href="#DejaVuSans-6c" x="1696.332031"/>
     <use xlink:href="#DejaVuSans-2d" x="1724.115234"/>
     <use xlink:href="#DejaVuSans-4f" x="1762.949219"/>
     <use xlink:href="#DejaVuSans-6d" x="1841.660156"/>
     <use xlink:href="#DejaVuSans-69" x="1939.072266"/>
     <use xlink:href="#DejaVuSans-73" x="1966.855469"/>
     <use xlink:href="#DejaVuSans-73" x="2018.955078"/>
     <use xlink:href="#DejaVuSans-69" x="2071.054688"/>
     <use xlink:href="#DejaVuSans-6f" x="2098.837891"/>
     <use xlink:href="#DejaVuSans-6e" x="2160.019531"/>
     <use xlink:href="#DejaVuSans-2d" x="2223.398438"/>
     <use xlink:href="#DejaVuSans-53" x="2259.482422"/>
     <use xlink:href="#DejaVuSans-70" x="2322.958984"/>
     <use xlink:href="#DejaVuSans-61" x="2386.435547"/>
     <use xlink:href="#DejaVuSans-72" x="2447.714844"/>
     <use xlink:href="#DejaVuSans-73" x="2488.828125"/>
     <use xlink:href="#DejaVuSans-65" x="2540.927734"/>
    </g>
   </g>
  </g>
 </g>
 <defs>
  <clipPath id="pf690138d7b">
   <rect x="58.752" y="41.472" width="354.816" height="266.112"/>
  </clipPath>
 </defs>
</svg>
