<?xml version="1.0" encoding="utf-8" standalone="no"?>
<!DOCTYPE svg PUBLIC "-//W3C//DTD SVG 1.1//EN"
  "http://www.w3.org/Graphics/SVG/1.1/DTD/svg11.dtd">
<svg xmlns:xlink="http://www.w3.org/1999/xlink" width="460.8pt" height="345.6pt" viewBox="0 0 460.8 345.6" xmlns="http://www.w3.org/2000/svg" version="1.1">
 <metadata>
  <rdf:RDF xmlns:dc="http://purl.org/dc/elements/1.1/" xmlns:cc="http://creativecommons.org/ns#" xmlns:rdf="http://www.w3.org/1999/02/22-rdf-syntax-ns#">
   <cc:Work>
    <dc:type rdf:resource="http://purl.org/dc/dcmitype/StillImage"/>
    <dc:date>2024-09-05T15:25:19.869156</dc:date>
    <dc:format>image/svg+xml</dc:format>
    <dc:creator>
     <cc:Agent>
      <dc:title>Matplotlib v3.7.1, https://matplotlib.org/</dc:title>
     </cc:Agent>
    </dc:creator>
   </cc:Work>
  </rdf:RDF>
 </metadata>
 <defs>
  <style type="text/css">*{stroke-linejoin: round; stroke-linecap: butt}</style>
 </defs>
 <g id="figure_1">
  <g id="patch_1">
   <path d="M 0 345.6 
L 460.8 345.6 
L 460.8 0 
L 0 0 
z
" style="fill: #ffffff"/>
  </g>
  <g id="axes_1">
   <g id="patch_2">
    <path d="M 187.642063 93.417223 
Q 171.493086 125.89198 183.371787 157.039572 
" clip-path="url(#pa2de129caa)" style="fill: none; stroke: #808080; stroke-width: 1.270447; stroke-linecap: round"/>
    <path d="M 184.036854 150.364417 
L 183.371787 157.039572 
L 178.430704 152.502425 
z
" clip-path="url(#pa2de129caa)" style="fill: #808080; stroke: #808080; stroke-width: 1.270447; stroke-linecap: round"/>
   </g>
   <g id="patch_3">
    <path d="M 187.494616 93.330598 
Q 145.175368 170.383279 182.532458 246.13457 
" clip-path="url(#pa2de129caa)" style="fill: none; stroke: #808080; stroke-width: 1.297846; stroke-linecap: round"/>
    <path d="M 182.569295 239.426468 
L 182.532458 246.13457 
L 177.188078 242.080239 
z
" clip-path="url(#pa2de129caa)" style="fill: #808080; stroke: #808080; stroke-width: 1.297846; stroke-linecap: round"/>
   </g>
   <g id="patch_4">
    <path d="M 195.973937 166.934777 
Q 212.122914 134.46002 200.518766 104.032344 
" clip-path="url(#pa2de129caa)" style="fill: none; stroke: #808080; stroke-width: 1.959596; stroke-linecap: round"/>
    <path d="M 199.853699 110.707498 
L 200.518766 104.032344 
L 205.459849 108.569491 
z
" clip-path="url(#pa2de129caa)" style="fill: #808080; stroke: #808080; stroke-width: 1.959596; stroke-linecap: round"/>
   </g>
   <g id="patch_5">
    <path d="M 187.642063 182.121223 
Q 171.493086 214.59598 183.715936 246.645979 
" clip-path="url(#pa2de129caa)" style="fill: none; stroke: #808080; stroke-width: 0.406606; stroke-linecap: round"/>
    <path d="M 184.381004 239.970824 
L 183.715936 246.645979 
L 178.774853 242.108832 
z
" clip-path="url(#pa2de129caa)" style="fill: #808080; stroke: #808080; stroke-width: 0.406606; stroke-linecap: round"/>
   </g>
   <g id="patch_6">
    <path d="M 196.121384 255.725402 
Q 238.440632 178.672721 200.619495 101.980453 
" clip-path="url(#pa2de129caa)" style="fill: none; stroke: #808080; stroke-width: 0.359432; stroke-linecap: round"/>
    <path d="M 200.582658 108.688556 
L 200.619495 101.980453 
L 205.963875 106.034784 
z
" clip-path="url(#pa2de129caa)" style="fill: #808080; stroke: #808080; stroke-width: 0.359432; stroke-linecap: round"/>
   </g>
   <g id="patch_7">
    <path d="M 195.973937 255.638777 
Q 212.122914 223.16402 199.999498 191.37475 
" clip-path="url(#pa2de129caa)" style="fill: none; stroke: #808080; stroke-width: 0.656192; stroke-linecap: round"/>
    <path d="M 199.33443 198.049904 
L 199.999498 191.37475 
L 204.94058 195.911897 
z
" clip-path="url(#pa2de129caa)" style="fill: #808080; stroke: #808080; stroke-width: 0.656192; stroke-linecap: round"/>
   </g>
   <g id="patch_8">
    <path d="M 320.698063 93.417223 
Q 304.549086 125.89198 316.417254 157.011954 
" clip-path="url(#pa2de129caa)" style="fill: none; stroke: #808080; stroke-width: 1.296884; stroke-linecap: round"/>
    <path d="M 317.082322 150.3368 
L 316.417254 157.011954 
L 311.476171 152.474807 
z
" clip-path="url(#pa2de129caa)" style="fill: #808080; stroke: #808080; stroke-width: 1.296884; stroke-linecap: round"/>
   </g>
   <g id="patch_9">
    <path d="M 320.550616 93.330598 
Q 278.231368 170.383279 315.58245 246.122388 
" clip-path="url(#pa2de129caa)" style="fill: none; stroke: #808080; stroke-width: 1.309996; stroke-linecap: round"/>
    <path d="M 315.619287 239.414285 
L 315.58245 246.122388 
L 310.23807 242.068056 
z
" clip-path="url(#pa2de129caa)" style="fill: #808080; stroke: #808080; stroke-width: 1.309996; stroke-linecap: round"/>
   </g>
   <g id="patch_10">
    <path d="M 329.029937 166.934777 
Q 345.178914 134.46002 333.596158 104.088435 
" clip-path="url(#pa2de129caa)" style="fill: none; stroke: #808080; stroke-width: 2.01329; stroke-linecap: round"/>
    <path d="M 332.93109 110.763589 
L 333.596158 104.088435 
L 338.53724 108.625582 
z
" clip-path="url(#pa2de129caa)" style="fill: #808080; stroke: #808080; stroke-width: 2.01329; stroke-linecap: round"/>
   </g>
   <g id="patch_11">
    <path d="M 320.698063 182.121223 
Q 304.549086 214.59598 316.77689 246.658968 
" clip-path="url(#pa2de129caa)" style="fill: none; stroke: #808080; stroke-width: 0.394171; stroke-linecap: round"/>
    <path d="M 317.441958 239.983814 
L 316.77689 246.658968 
L 311.835807 242.121822 
z
" clip-path="url(#pa2de129caa)" style="fill: #808080; stroke: #808080; stroke-width: 0.394171; stroke-linecap: round"/>
   </g>
   <g id="patch_12">
    <path d="M 323.842995 254.628888 
Q 308.70948 141.890116 212.237353 95.076505 
" clip-path="url(#pa2de129caa)" style="fill: none; stroke: #808080; stroke-width: 3.960736; stroke-linecap: round"/>
    <path d="M 216.325666 100.394935 
L 212.237353 95.076505 
L 218.945085 94.996913 
z
" clip-path="url(#pa2de129caa)" style="fill: #808080; stroke: #808080; stroke-width: 3.960736; stroke-linecap: round"/>
   </g>
   <g id="patch_13">
    <path d="M 317.323564 258.964134 
Q 262.523503 229.810795 211.724776 252.998508 
" clip-path="url(#pa2de129caa)" style="fill: none; stroke: #808080; stroke-width: 3.934121; stroke-linecap: round"/>
    <path d="M 218.428769 253.236146 
L 211.724776 252.998508 
L 215.937283 247.777896 
z
" clip-path="url(#pa2de129caa)" style="fill: #808080; stroke: #808080; stroke-width: 3.934121; stroke-linecap: round"/>
   </g>
   <g id="patch_14">
    <path d="M 329.177384 255.725402 
Q 371.496632 178.672721 333.683318 101.996316 
" clip-path="url(#pa2de129caa)" style="fill: none; stroke: #808080; stroke-width: 0.375252; stroke-linecap: round"/>
    <path d="M 333.646481 108.704419 
L 333.683318 101.996316 
L 339.027698 106.050647 
z
" clip-path="url(#pa2de129caa)" style="fill: #808080; stroke: #808080; stroke-width: 0.375252; stroke-linecap: round"/>
   </g>
   <g id="patch_15">
    <path d="M 329.029937 255.638777 
Q 345.178914 223.16402 333.059926 191.386363 
" clip-path="url(#pa2de129caa)" style="fill: none; stroke: #808080; stroke-width: 0.667308; stroke-linecap: round"/>
    <path d="M 332.394859 198.061517 
L 333.059926 191.386363 
L 338.001009 195.923509 
z
" clip-path="url(#pa2de129caa)" style="fill: #808080; stroke: #808080; stroke-width: 0.667308; stroke-linecap: round"/>
   </g>
   <g id="patch_16">
    <path d="M 323.842995 254.628888 
Q 308.70948 141.890116 212.237353 95.076505 
" clip-path="url(#pa2de129caa)" style="fill: none; stroke: #008000; stroke-width: 3.960736; stroke-linecap: round"/>
    <path d="M 216.325666 100.394935 
L 212.237353 95.076505 
L 218.945085 94.996913 
z
" clip-path="url(#pa2de129caa)" style="fill: #008000; stroke: #008000; stroke-width: 3.960736; stroke-linecap: round"/>
   </g>
   <g id="patch_17">
    <path d="M 317.323564 258.964134 
Q 262.523503 229.810795 211.724776 252.998508 
" clip-path="url(#pa2de129caa)" style="fill: none; stroke: #008000; stroke-width: 3.934121; stroke-linecap: round"/>
    <path d="M 218.428769 253.236146 
L 211.724776 252.998508 
L 215.937283 247.777896 
z
" clip-path="url(#pa2de129caa)" style="fill: #008000; stroke: #008000; stroke-width: 3.934121; stroke-linecap: round"/>
   </g>
   <g id="patch_18">
    <path d="M 195.678793 93.5709 
Q 231.903482 162.329243 302.513168 172.245138 
" clip-path="url(#pa2de129caa)" style="fill: none; stroke: #ffa500; stroke-width: 4; stroke-linecap: round"/>
    <path d="M 296.988675 168.439882 
L 302.513168 172.245138 
L 296.154268 174.38158 
z
" clip-path="url(#pa2de129caa)" style="fill: #ffa500; stroke: #ffa500; stroke-width: 4; stroke-linecap: round"/>
   </g>
   <g id="patch_19">
    <path d="M 147.456 81.3888 
L 149.6736 85.824 
L 147.500352 85.824 
L 147.500352 85.824 
L 147.411648 85.824 
L 147.411648 85.824 
L 145.2384 85.824 
z
" clip-path="url(#pa2de129caa)" style="fill: #808080; stroke: #808080; stroke-linejoin: miter"/>
   </g>
   <g id="patch_20">
    <path d="M 165.1968 103.5648 
C 169.901715 103.5648 174.414563 101.695517 177.74144 98.36864 
C 181.068317 95.041763 182.9376 90.528915 182.9376 85.824 
C 182.9376 81.119085 181.068317 76.606237 177.74144 73.27936 
C 174.414563 69.952483 169.901715 68.0832 165.1968 68.0832 
C 160.491885 68.0832 155.979037 69.952483 152.65216 73.27936 
C 149.325283 76.606237 147.456 81.119085 147.456 85.824 
C 147.456 90.528915 149.325283 95.041763 152.65216 98.36864 
C 155.979037 101.695517 160.491885 103.5648 165.1968 103.5648 
L 165.1968 103.5648 
z
" clip-path="url(#pa2de129caa)" style="fill: none; stroke: #808080; stroke-width: 2.414765; stroke-linejoin: miter"/>
   </g>
   <g id="patch_21">
    <path d="M 147.456 170.0928 
L 149.6736 174.528 
L 147.500352 174.528 
L 147.500352 174.528 
L 147.411648 174.528 
L 147.411648 174.528 
L 145.2384 174.528 
z
" clip-path="url(#pa2de129caa)" style="fill: #808080; stroke: #808080; stroke-linejoin: miter"/>
   </g>
   <g id="patch_22">
    <path d="M 165.1968 192.2688 
C 169.901715 192.2688 174.414563 190.399517 177.74144 187.07264 
C 181.068317 183.745763 182.9376 179.232915 182.9376 174.528 
C 182.9376 169.823085 181.068317 165.310237 177.74144 161.98336 
C 174.414563 158.656483 169.901715 156.7872 165.1968 156.7872 
C 160.491885 156.7872 155.979037 158.656483 152.65216 161.98336 
C 149.325283 165.310237 147.456 169.823085 147.456 174.528 
C 147.456 179.232915 149.325283 183.745763 152.65216 187.07264 
C 155.979037 190.399517 160.491885 192.2688 165.1968 192.2688 
L 165.1968 192.2688 
z
" clip-path="url(#pa2de129caa)" style="fill: none; stroke: #808080; stroke-width: 2.094846; stroke-linejoin: miter"/>
   </g>
   <g id="patch_23">
    <path d="M 147.456 258.7968 
L 149.6736 263.232 
L 147.500352 263.232 
L 147.500352 263.232 
L 147.411648 263.232 
L 147.411648 263.232 
L 145.2384 263.232 
z
" clip-path="url(#pa2de129caa)" style="fill: #808080; stroke: #808080; stroke-linejoin: miter"/>
   </g>
   <g id="patch_24">
    <path d="M 165.1968 280.9728 
C 169.901715 280.9728 174.414563 279.103517 177.74144 275.77664 
C 181.068317 272.449763 182.9376 267.936915 182.9376 263.232 
C 182.9376 258.527085 181.068317 254.014237 177.74144 250.68736 
C 174.414563 247.360483 169.901715 245.4912 165.1968 245.4912 
C 160.491885 245.4912 155.979037 247.360483 152.65216 250.68736 
C 149.325283 254.014237 147.456 258.527085 147.456 263.232 
C 147.456 267.936915 149.325283 272.449763 152.65216 275.77664 
C 155.979037 279.103517 160.491885 280.9728 165.1968 280.9728 
L 165.1968 280.9728 
z
" clip-path="url(#pa2de129caa)" style="fill: none; stroke: #808080; stroke-width: 1.170791; stroke-linejoin: miter"/>
   </g>
   <g id="patch_25">
    <path d="M 369.216 90.2592 
L 366.9984 85.824 
L 369.171648 85.824 
L 369.171648 85.824 
L 369.260352 85.824 
L 369.260352 85.824 
L 371.4336 85.824 
z
" clip-path="url(#pa2de129caa)" style="fill: #808080; stroke: #808080; stroke-linejoin: miter"/>
   </g>
   <g id="patch_26">
    <path d="M 351.4752 103.5648 
C 356.180115 103.5648 360.692963 101.695517 364.01984 98.36864 
C 367.346717 95.041763 369.216 90.528915 369.216 85.824 
C 369.216 81.119085 367.346717 76.606237 364.01984 73.27936 
C 360.692963 69.952483 356.180115 68.0832 351.4752 68.0832 
C 346.770285 68.0832 342.257437 69.952483 338.93056 73.27936 
C 335.603683 76.606237 333.7344 81.119085 333.7344 85.824 
C 333.7344 90.528915 335.603683 95.041763 338.93056 98.36864 
C 342.257437 101.695517 346.770285 103.5648 351.4752 103.5648 
L 351.4752 103.5648 
z
" clip-path="url(#pa2de129caa)" style="fill: none; stroke: #808080; stroke-width: 2.447758; stroke-linejoin: miter"/>
   </g>
   <g id="patch_27">
    <path d="M 369.216 178.9632 
L 366.9984 174.528 
L 369.171648 174.528 
L 369.171648 174.528 
L 369.260352 174.528 
L 369.260352 174.528 
L 371.4336 174.528 
z
" clip-path="url(#pa2de129caa)" style="fill: #808080; stroke: #808080; stroke-linejoin: miter"/>
   </g>
   <g id="patch_28">
    <path d="M 351.4752 192.2688 
C 356.180115 192.2688 360.692963 190.399517 364.01984 187.07264 
C 367.346717 183.745763 369.216 179.232915 369.216 174.528 
C 369.216 169.823085 367.346717 165.310237 364.01984 161.98336 
C 360.692963 158.656483 356.180115 156.7872 351.4752 156.7872 
C 346.770285 156.7872 342.257437 158.656483 338.93056 161.98336 
C 335.603683 165.310237 333.7344 169.823085 333.7344 174.528 
C 333.7344 179.232915 335.603683 183.745763 338.93056 187.07264 
C 342.257437 190.399517 346.770285 192.2688 351.4752 192.2688 
L 351.4752 192.2688 
z
" clip-path="url(#pa2de129caa)" style="fill: none; stroke: #808080; stroke-width: 2.145405; stroke-linejoin: miter"/>
   </g>
   <g id="patch_29">
    <path d="M 369.216 267.6672 
L 366.9984 263.232 
L 369.171648 263.232 
L 369.171648 263.232 
L 369.260352 263.232 
L 369.260352 263.232 
L 371.4336 263.232 
z
" clip-path="url(#pa2de129caa)" style="fill: #808080; stroke: #808080; stroke-linejoin: miter"/>
   </g>
   <g id="patch_30">
    <path d="M 351.4752 280.9728 
C 356.180115 280.9728 360.692963 279.103517 364.01984 275.77664 
C 367.346717 272.449763 369.216 267.936915 369.216 263.232 
C 369.216 258.527085 367.346717 254.014237 364.01984 250.68736 
C 360.692963 247.360483 356.180115 245.4912 351.4752 245.4912 
C 346.770285 245.4912 342.257437 247.360483 338.93056 250.68736 
C 335.603683 254.014237 333.7344 258.527085 333.7344 263.232 
C 333.7344 267.936915 335.603683 272.449763 338.93056 275.77664 
C 342.257437 279.103517 346.770285 280.9728 351.4752 280.9728 
L 351.4752 280.9728 
z
" clip-path="url(#pa2de129caa)" style="fill: none; stroke: #808080; stroke-width: 1.183475; stroke-linejoin: miter"/>
   </g>
   <g id="PathCollection_1">
    <defs>
     <path id="ma25b8e473c" d="M 0 19.364917 
C 5.135636 19.364917 10.061621 17.324507 13.693064 13.693064 
C 17.324507 10.061621 19.364917 5.135636 19.364917 0 
C 19.364917 -5.135636 17.324507 -10.061621 13.693064 -13.693064 
C 10.061621 -17.324507 5.135636 -19.364917 0 -19.364917 
C -5.135636 -19.364917 -10.061621 -17.324507 -13.693064 -13.693064 
C -17.324507 -10.061621 -19.364917 -5.135636 -19.364917 0 
C -19.364917 5.135636 -17.324507 10.061621 -13.693064 13.693064 
C -10.061621 17.324507 -5.135636 19.364917 0 19.364917 
z
" style="stroke: #000000"/>
    </defs>
    <g clip-path="url(#pa2de129caa)">
     <use xlink:href="#ma25b8e473c" x="191.808" y="85.824" style="fill: #d3d3d3; stroke: #000000"/>
     <use xlink:href="#ma25b8e473c" x="191.808" y="174.528" style="fill: #d3d3d3; stroke: #000000"/>
     <use xlink:href="#ma25b8e473c" x="191.808" y="263.232" style="fill: #d3d3d3; stroke: #000000"/>
     <use xlink:href="#ma25b8e473c" x="324.864" y="85.824" style="fill: #d3d3d3; stroke: #000000"/>
     <use xlink:href="#ma25b8e473c" x="324.864" y="174.528" style="fill: #d3d3d3; stroke: #000000"/>
     <use xlink:href="#ma25b8e473c" x="324.864" y="263.232" style="fill: #d3d3d3; stroke: #000000"/>
    </g>
   </g>
   <g id="text_1">
    <g clip-path="url(#pa2de129caa)">
     <!-- L2/3 -->
     <g transform="translate(179.837688 88.583375) scale(0.1 -0.1)">
      <defs>
       <path id="DejaVuSans-Bold-4c" d="M 588 4666 
L 1791 4666 
L 1791 909 
L 3903 909 
L 3903 0 
L 588 0 
L 588 4666 
z
" transform="scale(0.015625)"/>
       <path id="DejaVuSans-Bold-32" d="M 1844 884 
L 3897 884 
L 3897 0 
L 506 0 
L 506 884 
L 2209 2388 
Q 2438 2594 2547 2791 
Q 2656 2988 2656 3200 
Q 2656 3528 2436 3728 
Q 2216 3928 1850 3928 
Q 1569 3928 1234 3808 
Q 900 3688 519 3450 
L 519 4475 
Q 925 4609 1322 4679 
Q 1719 4750 2100 4750 
Q 2938 4750 3402 4381 
Q 3866 4013 3866 3353 
Q 3866 2972 3669 2642 
Q 3472 2313 2841 1759 
L 1844 884 
z
" transform="scale(0.015625)"/>
       <path id="DejaVuSans-Bold-2f" d="M 1644 4666 
L 2338 4666 
L 691 -594 
L 0 -594 
L 1644 4666 
z
" transform="scale(0.015625)"/>
       <path id="DejaVuSans-Bold-33" d="M 2981 2516 
Q 3453 2394 3698 2092 
Q 3944 1791 3944 1325 
Q 3944 631 3412 270 
Q 2881 -91 1863 -91 
Q 1503 -91 1142 -33 
Q 781 25 428 141 
L 428 1069 
Q 766 900 1098 814 
Q 1431 728 1753 728 
Q 2231 728 2486 893 
Q 2741 1059 2741 1369 
Q 2741 1688 2480 1852 
Q 2219 2016 1709 2016 
L 1228 2016 
L 1228 2791 
L 1734 2791 
Q 2188 2791 2409 2933 
Q 2631 3075 2631 3366 
Q 2631 3634 2415 3781 
Q 2200 3928 1806 3928 
Q 1516 3928 1219 3862 
Q 922 3797 628 3669 
L 628 4550 
Q 984 4650 1334 4700 
Q 1684 4750 2022 4750 
Q 2931 4750 3382 4451 
Q 3834 4153 3834 3553 
Q 3834 3144 3618 2883 
Q 3403 2622 2981 2516 
z
" transform="scale(0.015625)"/>
      </defs>
      <use xlink:href="#DejaVuSans-Bold-4c"/>
      <use xlink:href="#DejaVuSans-Bold-32" x="63.720703"/>
      <use xlink:href="#DejaVuSans-Bold-2f" x="133.300781"/>
      <use xlink:href="#DejaVuSans-Bold-33" x="169.824219"/>
     </g>
    </g>
   </g>
   <g id="text_2">
    <g clip-path="url(#pa2de129caa)">
     <!-- L4 -->
     <g transform="translate(185.143156 177.287375) scale(0.1 -0.1)">
      <defs>
       <path id="DejaVuSans-Bold-34" d="M 2356 3675 
L 1038 1722 
L 2356 1722 
L 2356 3675 
z
M 2156 4666 
L 3494 4666 
L 3494 1722 
L 4159 1722 
L 4159 850 
L 3494 850 
L 3494 0 
L 2356 0 
L 2356 850 
L 288 850 
L 288 1881 
L 2156 4666 
z
" transform="scale(0.015625)"/>
      </defs>
      <use xlink:href="#DejaVuSans-Bold-4c"/>
      <use xlink:href="#DejaVuSans-Bold-34" x="63.720703"/>
     </g>
    </g>
   </g>
   <g id="text_3">
    <g clip-path="url(#pa2de129caa)">
     <!-- L5 -->
     <g transform="translate(185.143156 265.991375) scale(0.1 -0.1)">
      <defs>
       <path id="DejaVuSans-Bold-35" d="M 678 4666 
L 3669 4666 
L 3669 3781 
L 1638 3781 
L 1638 3059 
Q 1775 3097 1914 3117 
Q 2053 3138 2203 3138 
Q 3056 3138 3531 2711 
Q 4006 2284 4006 1522 
Q 4006 766 3489 337 
Q 2972 -91 2053 -91 
Q 1656 -91 1267 -14 
Q 878 63 494 219 
L 494 1166 
Q 875 947 1217 837 
Q 1559 728 1863 728 
Q 2300 728 2551 942 
Q 2803 1156 2803 1522 
Q 2803 1891 2551 2103 
Q 2300 2316 1863 2316 
Q 1603 2316 1309 2248 
Q 1016 2181 678 2041 
L 678 4666 
z
" transform="scale(0.015625)"/>
      </defs>
      <use xlink:href="#DejaVuSans-Bold-4c"/>
      <use xlink:href="#DejaVuSans-Bold-35" x="63.720703"/>
     </g>
    </g>
   </g>
   <g id="text_4">
    <g clip-path="url(#pa2de129caa)">
     <!-- L2/3 -->
     <g transform="translate(312.893688 88.583375) scale(0.1 -0.1)">
      <use xlink:href="#DejaVuSans-Bold-4c"/>
      <use xlink:href="#DejaVuSans-Bold-32" x="63.720703"/>
      <use xlink:href="#DejaVuSans-Bold-2f" x="133.300781"/>
      <use xlink:href="#DejaVuSans-Bold-33" x="169.824219"/>
     </g>
    </g>
   </g>
   <g id="text_5">
    <g clip-path="url(#pa2de129caa)">
     <!-- L4 -->
     <g transform="translate(318.199156 177.287375) scale(0.1 -0.1)">
      <use xlink:href="#DejaVuSans-Bold-4c"/>
      <use xlink:href="#DejaVuSans-Bold-34" x="63.720703"/>
     </g>
    </g>
   </g>
   <g id="text_6">
    <g clip-path="url(#pa2de129caa)">
     <!-- L5 -->
     <g transform="translate(318.199156 265.991375) scale(0.1 -0.1)">
      <use xlink:href="#DejaVuSans-Bold-4c"/>
      <use xlink:href="#DejaVuSans-Bold-35" x="63.720703"/>
     </g>
    </g>
   </g>
   <g id="text_7">
    <!-- LM -->
    <g transform="translate(315.9936 307.584) scale(0.12 -0.12)">
     <defs>
      <path id="DejaVuSans-Bold-4d" d="M 588 4666 
L 2119 4666 
L 3181 2169 
L 4250 4666 
L 5778 4666 
L 5778 0 
L 4641 0 
L 4641 3413 
L 3566 897 
L 2803 897 
L 1728 3413 
L 1728 0 
L 588 0 
L 588 4666 
z
" transform="scale(0.015625)"/>
     </defs>
     <use xlink:href="#DejaVuSans-Bold-4c"/>
     <use xlink:href="#DejaVuSans-Bold-4d" x="63.720703"/>
    </g>
   </g>
   <g id="text_8">
    <!-- V1 -->
    <g transform="translate(182.9376 307.584) scale(0.12 -0.12)">
     <defs>
      <path id="DejaVuSans-Bold-56" d="M 31 4666 
L 1241 4666 
L 2478 1222 
L 3713 4666 
L 4922 4666 
L 3194 0 
L 1759 0 
L 31 4666 
z
" transform="scale(0.015625)"/>
      <path id="DejaVuSans-Bold-31" d="M 750 831 
L 1813 831 
L 1813 3847 
L 722 3622 
L 722 4441 
L 1806 4666 
L 2950 4666 
L 2950 831 
L 4013 831 
L 4013 0 
L 750 0 
L 750 831 
z
" transform="scale(0.015625)"/>
     </defs>
     <use xlink:href="#DejaVuSans-Bold-56"/>
     <use xlink:href="#DejaVuSans-Bold-31" x="77.392578"/>
    </g>
   </g>
  </g>
 </g>
 <defs>
  <clipPath id="pa2de129caa">
   <rect x="58.752" y="41.472" width="354.816" height="266.112"/>
  </clipPath>
 </defs>
</svg>
