<?xml version="1.0" encoding="utf-8" standalone="no"?>
<!DOCTYPE svg PUBLIC "-//W3C//DTD SVG 1.1//EN"
  "http://www.w3.org/Graphics/SVG/1.1/DTD/svg11.dtd">
<svg xmlns:xlink="http://www.w3.org/1999/xlink" width="460.8pt" height="345.6pt" viewBox="0 0 460.8 345.6" xmlns="http://www.w3.org/2000/svg" version="1.1">
 <metadata>
  <rdf:RDF xmlns:dc="http://purl.org/dc/elements/1.1/" xmlns:cc="http://creativecommons.org/ns#" xmlns:rdf="http://www.w3.org/1999/02/22-rdf-syntax-ns#">
   <cc:Work>
    <dc:type rdf:resource="http://purl.org/dc/dcmitype/StillImage"/>
    <dc:date>2024-11-26T02:50:33.045887</dc:date>
    <dc:format>image/svg+xml</dc:format>
    <dc:creator>
     <cc:Agent>
      <dc:title>Matplotlib v3.8.0, https://matplotlib.org/</dc:title>
     </cc:Agent>
    </dc:creator>
   </cc:Work>
  </rdf:RDF>
 </metadata>
 <defs>
  <style type="text/css">*{stroke-linejoin: round; stroke-linecap: butt}</style>
 </defs>
 <g id="figure_1">
  <g id="patch_1">
   <path d="M 0 345.6 
L 460.8 345.6 
L 460.8 0 
L 0 0 
z
" style="fill: #ffffff"/>
  </g>
  <g id="axes_1">
   <g id="patch_2">
    <path d="M 187.642063 93.417223 
Q 171.493086 125.89198 183.398405 157.10937 
" clip-path="url(#p40dbf68de2)" style="fill: none; stroke: #fff6f6; stroke-width: 1.203631; stroke-linecap: round"/>
    <path d="M 184.063473 150.434216 
L 183.398405 157.10937 
L 178.457323 152.572223 
z
" clip-path="url(#p40dbf68de2)" style="fill: #fff6f6; stroke: #fff6f6; stroke-width: 1.203631; stroke-linecap: round"/>
   </g>
   <g id="patch_3">
    <path d="M 187.494616 93.330598 
Q 145.175368 170.383279 182.561909 246.19429 
" clip-path="url(#p40dbf68de2)" style="fill: none; stroke: #fffcfc; stroke-width: 1.238289; stroke-linecap: round"/>
    <path d="M 182.598746 239.486187 
L 182.561909 246.19429 
L 177.217529 242.139959 
z
" clip-path="url(#p40dbf68de2)" style="fill: #fffcfc; stroke: #fffcfc; stroke-width: 1.238289; stroke-linecap: round"/>
   </g>
   <g id="patch_4">
    <path d="M 195.678793 93.5709 
Q 231.903482 162.329243 302.513168 172.245138 
" clip-path="url(#p40dbf68de2)" style="fill: none; stroke: #ffb0b0; stroke-width: 4; stroke-linecap: round"/>
    <path d="M 296.988675 168.439882 
L 302.513168 172.245138 
L 296.154268 174.38158 
z
" clip-path="url(#p40dbf68de2)" style="fill: #ffb0b0; stroke: #ffb0b0; stroke-width: 4; stroke-linecap: round"/>
   </g>
   <g id="patch_5">
    <path d="M 195.973937 166.934777 
Q 212.122914 134.46002 200.497484 103.976539 
" clip-path="url(#p40dbf68de2)" style="fill: none; stroke: #fffefe; stroke-width: 1.906176; stroke-linecap: round"/>
    <path d="M 199.832416 110.651693 
L 200.497484 103.976539 
L 205.438567 108.513686 
z
" clip-path="url(#p40dbf68de2)" style="fill: #fffefe; stroke: #fffefe; stroke-width: 1.906176; stroke-linecap: round"/>
   </g>
   <g id="patch_6">
    <path d="M 187.642063 182.121223 
Q 171.493086 214.59598 183.717957 246.651278 
" clip-path="url(#p40dbf68de2)" style="fill: none; stroke: #fff6f6; stroke-width: 0.401533; stroke-linecap: round"/>
    <path d="M 184.383025 239.976124 
L 183.717957 246.651278 
L 178.776874 242.114131 
z
" clip-path="url(#p40dbf68de2)" style="fill: #fff6f6; stroke: #fff6f6; stroke-width: 0.401533; stroke-linecap: round"/>
   </g>
   <g id="patch_7">
    <path d="M 196.121384 255.725402 
Q 238.440632 178.672721 200.615187 101.971717 
" clip-path="url(#p40dbf68de2)" style="fill: none; stroke: #f6f6ff; stroke-width: 0.35072; stroke-linecap: round"/>
    <path d="M 200.57835 108.67982 
L 200.615187 101.971717 
L 205.959567 106.026048 
z
" clip-path="url(#p40dbf68de2)" style="fill: #f6f6ff; stroke: #f6f6ff; stroke-width: 0.35072; stroke-linecap: round"/>
   </g>
   <g id="patch_8">
    <path d="M 195.973937 255.638777 
Q 212.122914 223.16402 199.994888 191.362662 
" clip-path="url(#p40dbf68de2)" style="fill: none; stroke: #d4d4ff; stroke-width: 0.64462; stroke-linecap: round"/>
    <path d="M 199.32982 198.037816 
L 199.994888 191.362662 
L 204.93597 195.899809 
z
" clip-path="url(#p40dbf68de2)" style="fill: #d4d4ff; stroke: #d4d4ff; stroke-width: 0.64462; stroke-linecap: round"/>
   </g>
   <g id="patch_9">
    <path d="M 320.698063 93.417223 
Q 304.549086 125.89198 316.451366 157.101401 
" clip-path="url(#p40dbf68de2)" style="fill: none; stroke: #fcfcff; stroke-width: 1.21126; stroke-linecap: round"/>
    <path d="M 317.116434 150.426246 
L 316.451366 157.101401 
L 311.510283 152.564254 
z
" clip-path="url(#p40dbf68de2)" style="fill: #fcfcff; stroke: #fcfcff; stroke-width: 1.21126; stroke-linecap: round"/>
   </g>
   <g id="patch_10">
    <path d="M 320.550616 93.330598 
Q 278.231368 170.383279 315.609374 246.176983 
" clip-path="url(#p40dbf68de2)" style="fill: none; stroke: #ffd0d0; stroke-width: 1.255549; stroke-linecap: round"/>
    <path d="M 315.646211 239.46888 
L 315.609374 246.176983 
L 310.264994 242.122652 
z
" clip-path="url(#p40dbf68de2)" style="fill: #ffd0d0; stroke: #ffd0d0; stroke-width: 1.255549; stroke-linecap: round"/>
   </g>
   <g id="patch_11">
    <path d="M 329.029937 166.934777 
Q 345.178914 134.46002 333.547378 103.960528 
" clip-path="url(#p40dbf68de2)" style="fill: none; stroke: #fff0f0; stroke-width: 1.890849; stroke-linecap: round"/>
    <path d="M 332.88231 110.635682 
L 333.547378 103.960528 
L 338.488461 108.497675 
z
" clip-path="url(#p40dbf68de2)" style="fill: #fff0f0; stroke: #fff0f0; stroke-width: 1.890849; stroke-linecap: round"/>
   </g>
   <g id="patch_12">
    <path d="M 320.698063 182.121223 
Q 304.549086 214.59598 316.781273 246.670462 
" clip-path="url(#p40dbf68de2)" style="fill: none; stroke: #ffd2d2; stroke-width: 0.383168; stroke-linecap: round"/>
    <path d="M 317.446341 239.995308 
L 316.781273 246.670462 
L 311.84019 242.133316 
z
" clip-path="url(#p40dbf68de2)" style="fill: #ffd2d2; stroke: #ffd2d2; stroke-width: 0.383168; stroke-linecap: round"/>
   </g>
   <g id="patch_13">
    <path d="M 323.842995 254.628888 
Q 308.70948 141.890116 212.112369 95.015856 
" clip-path="url(#p40dbf68de2)" style="fill: none; stroke: #ff0000; stroke-width: 3.83648; stroke-linecap: round"/>
    <path d="M 216.200682 100.334286 
L 212.112369 95.015856 
L 218.820101 94.936264 
z
" clip-path="url(#p40dbf68de2)" style="fill: #ff0000; stroke: #ff0000; stroke-width: 3.83648; stroke-linecap: round"/>
   </g>
   <g id="patch_14">
    <path d="M 317.323564 258.964134 
Q 262.523503 229.810795 211.665035 253.025777 
" clip-path="url(#p40dbf68de2)" style="fill: none; stroke: #ff4a4a; stroke-width: 3.875384; stroke-linecap: round"/>
    <path d="M 218.369029 253.263416 
L 211.665035 253.025777 
L 215.877543 247.805165 
z
" clip-path="url(#p40dbf68de2)" style="fill: #ff4a4a; stroke: #ff4a4a; stroke-width: 3.875384; stroke-linecap: round"/>
   </g>
   <g id="patch_15">
    <path d="M 329.177384 255.725402 
Q 371.496632 178.672721 333.675523 101.980509 
" clip-path="url(#p40dbf68de2)" style="fill: none; stroke: #fefeff; stroke-width: 0.359488; stroke-linecap: round"/>
    <path d="M 333.638686 108.688612 
L 333.675523 101.980509 
L 339.019903 106.03484 
z
" clip-path="url(#p40dbf68de2)" style="fill: #fefeff; stroke: #fefeff; stroke-width: 0.359488; stroke-linecap: round"/>
   </g>
   <g id="patch_16">
    <path d="M 329.029937 255.638777 
Q 345.178914 223.16402 333.052813 191.36771 
" clip-path="url(#p40dbf68de2)" style="fill: none; stroke: #ffecec; stroke-width: 0.649453; stroke-linecap: round"/>
    <path d="M 332.387745 198.042865 
L 333.052813 191.36771 
L 337.993896 195.904857 
z
" clip-path="url(#p40dbf68de2)" style="fill: #ffecec; stroke: #ffecec; stroke-width: 0.649453; stroke-linecap: round"/>
   </g>
   <g id="patch_17">
    <path d="M 147.456 81.3888 
L 149.6736 85.824 
L 147.500352 85.824 
L 147.500352 85.824 
L 147.411648 85.824 
L 147.411648 85.824 
L 145.2384 85.824 
z
" clip-path="url(#p40dbf68de2)" style="fill: #fff6f6; stroke: #fff6f6; stroke-linejoin: miter"/>
   </g>
   <g id="patch_18">
    <path d="M 165.1968 103.5648 
C 169.901715 103.5648 174.414563 101.695517 177.74144 98.36864 
C 181.068317 95.041763 182.9376 90.528915 182.9376 85.824 
C 182.9376 81.119085 181.068317 76.606237 177.74144 73.27936 
C 174.414563 69.952483 169.901715 68.0832 165.1968 68.0832 
C 160.491885 68.0832 155.979037 69.952483 152.65216 73.27936 
C 149.325283 76.606237 147.456 81.119085 147.456 85.824 
C 147.456 90.528915 149.325283 95.041763 152.65216 98.36864 
C 155.979037 101.695517 160.491885 103.5648 165.1968 103.5648 
L 165.1968 103.5648 
z
" clip-path="url(#p40dbf68de2)" style="fill: none; stroke: #fff6f6; stroke-width: 2.290379; stroke-linejoin: miter"/>
   </g>
   <g id="patch_19">
    <path d="M 147.456 170.0928 
L 149.6736 174.528 
L 147.500352 174.528 
L 147.500352 174.528 
L 147.411648 174.528 
L 147.411648 174.528 
L 145.2384 174.528 
z
" clip-path="url(#p40dbf68de2)" style="fill: #f2f2ff; stroke: #f2f2ff; stroke-linejoin: miter"/>
   </g>
   <g id="patch_20">
    <path d="M 165.1968 192.2688 
C 169.901715 192.2688 174.414563 190.399517 177.74144 187.07264 
C 181.068317 183.745763 182.9376 179.232915 182.9376 174.528 
C 182.9376 169.823085 181.068317 165.310237 177.74144 161.98336 
C 174.414563 158.656483 169.901715 156.7872 165.1968 156.7872 
C 160.491885 156.7872 155.979037 158.656483 152.65216 161.98336 
C 149.325283 165.310237 147.456 169.823085 147.456 174.528 
C 147.456 179.232915 149.325283 183.745763 152.65216 187.07264 
C 155.979037 190.399517 160.491885 192.2688 165.1968 192.2688 
L 165.1968 192.2688 
z
" clip-path="url(#p40dbf68de2)" style="fill: none; stroke: #f2f2ff; stroke-width: 2.08195; stroke-linejoin: miter"/>
   </g>
   <g id="patch_21">
    <path d="M 147.456 258.7968 
L 149.6736 263.232 
L 147.500352 263.232 
L 147.500352 263.232 
L 147.411648 263.232 
L 147.411648 263.232 
L 145.2384 263.232 
z
" clip-path="url(#p40dbf68de2)" style="fill: #fcfcff; stroke: #fcfcff; stroke-linejoin: miter"/>
   </g>
   <g id="patch_22">
    <path d="M 165.1968 280.9728 
C 169.901715 280.9728 174.414563 279.103517 177.74144 275.77664 
C 181.068317 272.449763 182.9376 267.936915 182.9376 263.232 
C 182.9376 258.527085 181.068317 254.014237 177.74144 250.68736 
C 174.414563 247.360483 169.901715 245.4912 165.1968 245.4912 
C 160.491885 245.4912 155.979037 247.360483 152.65216 250.68736 
C 149.325283 254.014237 147.456 258.527085 147.456 263.232 
C 147.456 267.936915 149.325283 272.449763 152.65216 275.77664 
C 155.979037 279.103517 160.491885 280.9728 165.1968 280.9728 
L 165.1968 280.9728 
z
" clip-path="url(#p40dbf68de2)" style="fill: none; stroke: #fcfcff; stroke-width: 1.128758; stroke-linejoin: miter"/>
   </g>
   <g id="patch_23">
    <path d="M 369.216 90.2592 
L 366.9984 85.824 
L 369.171648 85.824 
L 369.171648 85.824 
L 369.260352 85.824 
L 369.260352 85.824 
L 371.4336 85.824 
z
" clip-path="url(#p40dbf68de2)" style="fill: #fefeff; stroke: #fefeff; stroke-linejoin: miter"/>
   </g>
   <g id="patch_24">
    <path d="M 351.4752 103.5648 
C 356.180115 103.5648 360.692963 101.695517 364.01984 98.36864 
C 367.346717 95.041763 369.216 90.528915 369.216 85.824 
C 369.216 81.119085 367.346717 76.606237 364.01984 73.27936 
C 360.692963 69.952483 356.180115 68.0832 351.4752 68.0832 
C 346.770285 68.0832 342.257437 69.952483 338.93056 73.27936 
C 335.603683 76.606237 333.7344 81.119085 333.7344 85.824 
C 333.7344 90.528915 335.603683 95.041763 338.93056 98.36864 
C 342.257437 101.695517 346.770285 103.5648 351.4752 103.5648 
L 351.4752 103.5648 
z
" clip-path="url(#p40dbf68de2)" style="fill: none; stroke: #fefeff; stroke-width: 2.34675; stroke-linejoin: miter"/>
   </g>
   <g id="patch_25">
    <path d="M 369.216 178.9632 
L 366.9984 174.528 
L 369.171648 174.528 
L 369.171648 174.528 
L 369.260352 174.528 
L 369.260352 174.528 
L 371.4336 174.528 
z
" clip-path="url(#p40dbf68de2)" style="fill: #ffe6e6; stroke: #ffe6e6; stroke-linejoin: miter"/>
   </g>
   <g id="patch_26">
    <path d="M 351.4752 192.2688 
C 356.180115 192.2688 360.692963 190.399517 364.01984 187.07264 
C 367.346717 183.745763 369.216 179.232915 369.216 174.528 
C 369.216 169.823085 367.346717 165.310237 364.01984 161.98336 
C 360.692963 158.656483 356.180115 156.7872 351.4752 156.7872 
C 346.770285 156.7872 342.257437 158.656483 338.93056 161.98336 
C 335.603683 165.310237 333.7344 169.823085 333.7344 174.528 
C 333.7344 179.232915 335.603683 183.745763 338.93056 187.07264 
C 342.257437 190.399517 346.770285 192.2688 351.4752 192.2688 
L 351.4752 192.2688 
z
" clip-path="url(#p40dbf68de2)" style="fill: none; stroke: #ffe6e6; stroke-width: 2.0553; stroke-linejoin: miter"/>
   </g>
   <g id="patch_27">
    <path d="M 369.216 267.6672 
L 366.9984 263.232 
L 369.171648 263.232 
L 369.171648 263.232 
L 369.260352 263.232 
L 369.260352 263.232 
L 371.4336 263.232 
z
" clip-path="url(#p40dbf68de2)" style="fill: #ffb0b0; stroke: #ffb0b0; stroke-linejoin: miter"/>
   </g>
   <g id="patch_28">
    <path d="M 351.4752 280.9728 
C 356.180115 280.9728 360.692963 279.103517 364.01984 275.77664 
C 367.346717 272.449763 369.216 267.936915 369.216 263.232 
C 369.216 258.527085 367.346717 254.014237 364.01984 250.68736 
C 360.692963 247.360483 356.180115 245.4912 351.4752 245.4912 
C 346.770285 245.4912 342.257437 247.360483 338.93056 250.68736 
C 335.603683 254.014237 333.7344 258.527085 333.7344 263.232 
C 333.7344 267.936915 335.603683 272.449763 338.93056 275.77664 
C 342.257437 279.103517 346.770285 280.9728 351.4752 280.9728 
L 351.4752 280.9728 
z
" clip-path="url(#p40dbf68de2)" style="fill: none; stroke: #ffb0b0; stroke-width: 1.151162; stroke-linejoin: miter"/>
   </g>
   <g id="PathCollection_1">
    <defs>
     <path id="m80ca9b7820" d="M 0 19.364917 
C 5.135636 19.364917 10.061621 17.324507 13.693064 13.693064 
C 17.324507 10.061621 19.364917 5.135636 19.364917 0 
C 19.364917 -5.135636 17.324507 -10.061621 13.693064 -13.693064 
C 10.061621 -17.324507 5.135636 -19.364917 0 -19.364917 
C -5.135636 -19.364917 -10.061621 -17.324507 -13.693064 -13.693064 
C -17.324507 -10.061621 -19.364917 -5.135636 -19.364917 0 
C -19.364917 5.135636 -17.324507 10.061621 -13.693064 13.693064 
C -10.061621 17.324507 -5.135636 19.364917 0 19.364917 
z
" style="stroke: #000000"/>
    </defs>
    <g clip-path="url(#p40dbf68de2)">
     <use xlink:href="#m80ca9b7820" x="191.808" y="85.824" style="fill: #d3d3d3; stroke: #000000"/>
     <use xlink:href="#m80ca9b7820" x="191.808" y="174.528" style="fill: #d3d3d3; stroke: #000000"/>
     <use xlink:href="#m80ca9b7820" x="191.808" y="263.232" style="fill: #d3d3d3; stroke: #000000"/>
     <use xlink:href="#m80ca9b7820" x="324.864" y="85.824" style="fill: #d3d3d3; stroke: #000000"/>
     <use xlink:href="#m80ca9b7820" x="324.864" y="174.528" style="fill: #d3d3d3; stroke: #000000"/>
     <use xlink:href="#m80ca9b7820" x="324.864" y="263.232" style="fill: #d3d3d3; stroke: #000000"/>
    </g>
   </g>
   <g id="text_1">
    <g clip-path="url(#p40dbf68de2)">
     <!-- L2/3 -->
     <g transform="translate(179.837688 88.583375) scale(0.1 -0.1)">
      <defs>
       <path id="DejaVuSans-Bold-4c" d="M 588 4666 
L 1791 4666 
L 1791 909 
L 3903 909 
L 3903 0 
L 588 0 
L 588 4666 
z
" transform="scale(0.015625)"/>
       <path id="DejaVuSans-Bold-32" d="M 1844 884 
L 3897 884 
L 3897 0 
L 506 0 
L 506 884 
L 2209 2388 
Q 2438 2594 2547 2791 
Q 2656 2988 2656 3200 
Q 2656 3528 2436 3728 
Q 2216 3928 1850 3928 
Q 1569 3928 1234 3808 
Q 900 3688 519 3450 
L 519 4475 
Q 925 4609 1322 4679 
Q 1719 4750 2100 4750 
Q 2938 4750 3402 4381 
Q 3866 4013 3866 3353 
Q 3866 2972 3669 2642 
Q 3472 2313 2841 1759 
L 1844 884 
z
" transform="scale(0.015625)"/>
       <path id="DejaVuSans-Bold-2f" d="M 1644 4666 
L 2338 4666 
L 691 -594 
L 0 -594 
L 1644 4666 
z
" transform="scale(0.015625)"/>
       <path id="DejaVuSans-Bold-33" d="M 2981 2516 
Q 3453 2394 3698 2092 
Q 3944 1791 3944 1325 
Q 3944 631 3412 270 
Q 2881 -91 1863 -91 
Q 1503 -91 1142 -33 
Q 781 25 428 141 
L 428 1069 
Q 766 900 1098 814 
Q 1431 728 1753 728 
Q 2231 728 2486 893 
Q 2741 1059 2741 1369 
Q 2741 1688 2480 1852 
Q 2219 2016 1709 2016 
L 1228 2016 
L 1228 2791 
L 1734 2791 
Q 2188 2791 2409 2933 
Q 2631 3075 2631 3366 
Q 2631 3634 2415 3781 
Q 2200 3928 1806 3928 
Q 1516 3928 1219 3862 
Q 922 3797 628 3669 
L 628 4550 
Q 984 4650 1334 4700 
Q 1684 4750 2022 4750 
Q 2931 4750 3382 4451 
Q 3834 4153 3834 3553 
Q 3834 3144 3618 2883 
Q 3403 2622 2981 2516 
z
" transform="scale(0.015625)"/>
      </defs>
      <use xlink:href="#DejaVuSans-Bold-4c"/>
      <use xlink:href="#DejaVuSans-Bold-32" x="63.720703"/>
      <use xlink:href="#DejaVuSans-Bold-2f" x="133.300781"/>
      <use xlink:href="#DejaVuSans-Bold-33" x="169.824219"/>
     </g>
    </g>
   </g>
   <g id="text_2">
    <g clip-path="url(#p40dbf68de2)">
     <!-- L4 -->
     <g transform="translate(185.143156 177.287375) scale(0.1 -0.1)">
      <defs>
       <path id="DejaVuSans-Bold-34" d="M 2356 3675 
L 1038 1722 
L 2356 1722 
L 2356 3675 
z
M 2156 4666 
L 3494 4666 
L 3494 1722 
L 4159 1722 
L 4159 850 
L 3494 850 
L 3494 0 
L 2356 0 
L 2356 850 
L 288 850 
L 288 1881 
L 2156 4666 
z
" transform="scale(0.015625)"/>
      </defs>
      <use xlink:href="#DejaVuSans-Bold-4c"/>
      <use xlink:href="#DejaVuSans-Bold-34" x="63.720703"/>
     </g>
    </g>
   </g>
   <g id="text_3">
    <g clip-path="url(#p40dbf68de2)">
     <!-- L5 -->
     <g transform="translate(185.143156 265.991375) scale(0.1 -0.1)">
      <defs>
       <path id="DejaVuSans-Bold-35" d="M 678 4666 
L 3669 4666 
L 3669 3781 
L 1638 3781 
L 1638 3059 
Q 1775 3097 1914 3117 
Q 2053 3138 2203 3138 
Q 3056 3138 3531 2711 
Q 4006 2284 4006 1522 
Q 4006 766 3489 337 
Q 2972 -91 2053 -91 
Q 1656 -91 1267 -14 
Q 878 63 494 219 
L 494 1166 
Q 875 947 1217 837 
Q 1559 728 1863 728 
Q 2300 728 2551 942 
Q 2803 1156 2803 1522 
Q 2803 1891 2551 2103 
Q 2300 2316 1863 2316 
Q 1603 2316 1309 2248 
Q 1016 2181 678 2041 
L 678 4666 
z
" transform="scale(0.015625)"/>
      </defs>
      <use xlink:href="#DejaVuSans-Bold-4c"/>
      <use xlink:href="#DejaVuSans-Bold-35" x="63.720703"/>
     </g>
    </g>
   </g>
   <g id="text_4">
    <g clip-path="url(#p40dbf68de2)">
     <!-- L2/3 -->
     <g transform="translate(312.893688 88.583375) scale(0.1 -0.1)">
      <use xlink:href="#DejaVuSans-Bold-4c"/>
      <use xlink:href="#DejaVuSans-Bold-32" x="63.720703"/>
      <use xlink:href="#DejaVuSans-Bold-2f" x="133.300781"/>
      <use xlink:href="#DejaVuSans-Bold-33" x="169.824219"/>
     </g>
    </g>
   </g>
   <g id="text_5">
    <g clip-path="url(#p40dbf68de2)">
     <!-- L4 -->
     <g transform="translate(318.199156 177.287375) scale(0.1 -0.1)">
      <use xlink:href="#DejaVuSans-Bold-4c"/>
      <use xlink:href="#DejaVuSans-Bold-34" x="63.720703"/>
     </g>
    </g>
   </g>
   <g id="text_6">
    <g clip-path="url(#p40dbf68de2)">
     <!-- L5 -->
     <g transform="translate(318.199156 265.991375) scale(0.1 -0.1)">
      <use xlink:href="#DejaVuSans-Bold-4c"/>
      <use xlink:href="#DejaVuSans-Bold-35" x="63.720703"/>
     </g>
    </g>
   </g>
   <g id="text_7">
    <!-- LM -->
    <g transform="translate(315.9936 307.584) scale(0.12 -0.12)">
     <defs>
      <path id="DejaVuSans-Bold-4d" d="M 588 4666 
L 2119 4666 
L 3181 2169 
L 4250 4666 
L 5778 4666 
L 5778 0 
L 4641 0 
L 4641 3413 
L 3566 897 
L 2803 897 
L 1728 3413 
L 1728 0 
L 588 0 
L 588 4666 
z
" transform="scale(0.015625)"/>
     </defs>
     <use xlink:href="#DejaVuSans-Bold-4c"/>
     <use xlink:href="#DejaVuSans-Bold-4d" x="63.720703"/>
    </g>
   </g>
   <g id="text_8">
    <!-- V1 -->
    <g transform="translate(182.9376 307.584) scale(0.12 -0.12)">
     <defs>
      <path id="DejaVuSans-Bold-56" d="M 31 4666 
L 1241 4666 
L 2478 1222 
L 3713 4666 
L 4922 4666 
L 3194 0 
L 1759 0 
L 31 4666 
z
" transform="scale(0.015625)"/>
      <path id="DejaVuSans-Bold-31" d="M 750 831 
L 1813 831 
L 1813 3847 
L 722 3622 
L 722 4441 
L 1806 4666 
L 2950 4666 
L 2950 831 
L 4013 831 
L 4013 0 
L 750 0 
L 750 831 
z
" transform="scale(0.015625)"/>
     </defs>
     <use xlink:href="#DejaVuSans-Bold-56"/>
     <use xlink:href="#DejaVuSans-Bold-31" x="77.392578"/>
    </g>
   </g>
   <g id="text_9">
    <!-- Novel-No-Change-Sparse vs Novel-Change-Sparse -->
    <g transform="translate(85.330313 35.472) scale(0.12 -0.12)">
     <defs>
      <path id="DejaVuSans-4e" d="M 628 4666 
L 1478 4666 
L 3547 763 
L 3547 4666 
L 4159 4666 
L 4159 0 
L 3309 0 
L 1241 3903 
L 1241 0 
L 628 0 
L 628 4666 
z
" transform="scale(0.015625)"/>
      <path id="DejaVuSans-6f" d="M 1959 3097 
Q 1497 3097 1228 2736 
Q 959 2375 959 1747 
Q 959 1119 1226 758 
Q 1494 397 1959 397 
Q 2419 397 2687 759 
Q 2956 1122 2956 1747 
Q 2956 2369 2687 2733 
Q 2419 3097 1959 3097 
z
M 1959 3584 
Q 2709 3584 3137 3096 
Q 3566 2609 3566 1747 
Q 3566 888 3137 398 
Q 2709 -91 1959 -91 
Q 1206 -91 779 398 
Q 353 888 353 1747 
Q 353 2609 779 3096 
Q 1206 3584 1959 3584 
z
" transform="scale(0.015625)"/>
      <path id="DejaVuSans-76" d="M 191 3500 
L 800 3500 
L 1894 563 
L 2988 3500 
L 3597 3500 
L 2284 0 
L 1503 0 
L 191 3500 
z
" transform="scale(0.015625)"/>
      <path id="DejaVuSans-65" d="M 3597 1894 
L 3597 1613 
L 953 1613 
Q 991 1019 1311 708 
Q 1631 397 2203 397 
Q 2534 397 2845 478 
Q 3156 559 3463 722 
L 3463 178 
Q 3153 47 2828 -22 
Q 2503 -91 2169 -91 
Q 1331 -91 842 396 
Q 353 884 353 1716 
Q 353 2575 817 3079 
Q 1281 3584 2069 3584 
Q 2775 3584 3186 3129 
Q 3597 2675 3597 1894 
z
M 3022 2063 
Q 3016 2534 2758 2815 
Q 2500 3097 2075 3097 
Q 1594 3097 1305 2825 
Q 1016 2553 972 2059 
L 3022 2063 
z
" transform="scale(0.015625)"/>
      <path id="DejaVuSans-6c" d="M 603 4863 
L 1178 4863 
L 1178 0 
L 603 0 
L 603 4863 
z
" transform="scale(0.015625)"/>
      <path id="DejaVuSans-2d" d="M 313 2009 
L 1997 2009 
L 1997 1497 
L 313 1497 
L 313 2009 
z
" transform="scale(0.015625)"/>
      <path id="DejaVuSans-43" d="M 4122 4306 
L 4122 3641 
Q 3803 3938 3442 4084 
Q 3081 4231 2675 4231 
Q 1875 4231 1450 3742 
Q 1025 3253 1025 2328 
Q 1025 1406 1450 917 
Q 1875 428 2675 428 
Q 3081 428 3442 575 
Q 3803 722 4122 1019 
L 4122 359 
Q 3791 134 3420 21 
Q 3050 -91 2638 -91 
Q 1578 -91 968 557 
Q 359 1206 359 2328 
Q 359 3453 968 4101 
Q 1578 4750 2638 4750 
Q 3056 4750 3426 4639 
Q 3797 4528 4122 4306 
z
" transform="scale(0.015625)"/>
      <path id="DejaVuSans-68" d="M 3513 2113 
L 3513 0 
L 2938 0 
L 2938 2094 
Q 2938 2591 2744 2837 
Q 2550 3084 2163 3084 
Q 1697 3084 1428 2787 
Q 1159 2491 1159 1978 
L 1159 0 
L 581 0 
L 581 4863 
L 1159 4863 
L 1159 2956 
Q 1366 3272 1645 3428 
Q 1925 3584 2291 3584 
Q 2894 3584 3203 3211 
Q 3513 2838 3513 2113 
z
" transform="scale(0.015625)"/>
      <path id="DejaVuSans-61" d="M 2194 1759 
Q 1497 1759 1228 1600 
Q 959 1441 959 1056 
Q 959 750 1161 570 
Q 1363 391 1709 391 
Q 2188 391 2477 730 
Q 2766 1069 2766 1631 
L 2766 1759 
L 2194 1759 
z
M 3341 1997 
L 3341 0 
L 2766 0 
L 2766 531 
Q 2569 213 2275 61 
Q 1981 -91 1556 -91 
Q 1019 -91 701 211 
Q 384 513 384 1019 
Q 384 1609 779 1909 
Q 1175 2209 1959 2209 
L 2766 2209 
L 2766 2266 
Q 2766 2663 2505 2880 
Q 2244 3097 1772 3097 
Q 1472 3097 1187 3025 
Q 903 2953 641 2809 
L 641 3341 
Q 956 3463 1253 3523 
Q 1550 3584 1831 3584 
Q 2591 3584 2966 3190 
Q 3341 2797 3341 1997 
z
" transform="scale(0.015625)"/>
      <path id="DejaVuSans-6e" d="M 3513 2113 
L 3513 0 
L 2938 0 
L 2938 2094 
Q 2938 2591 2744 2837 
Q 2550 3084 2163 3084 
Q 1697 3084 1428 2787 
Q 1159 2491 1159 1978 
L 1159 0 
L 581 0 
L 581 3500 
L 1159 3500 
L 1159 2956 
Q 1366 3272 1645 3428 
Q 1925 3584 2291 3584 
Q 2894 3584 3203 3211 
Q 3513 2838 3513 2113 
z
" transform="scale(0.015625)"/>
      <path id="DejaVuSans-67" d="M 2906 1791 
Q 2906 2416 2648 2759 
Q 2391 3103 1925 3103 
Q 1463 3103 1205 2759 
Q 947 2416 947 1791 
Q 947 1169 1205 825 
Q 1463 481 1925 481 
Q 2391 481 2648 825 
Q 2906 1169 2906 1791 
z
M 3481 434 
Q 3481 -459 3084 -895 
Q 2688 -1331 1869 -1331 
Q 1566 -1331 1297 -1286 
Q 1028 -1241 775 -1147 
L 775 -588 
Q 1028 -725 1275 -790 
Q 1522 -856 1778 -856 
Q 2344 -856 2625 -561 
Q 2906 -266 2906 331 
L 2906 616 
Q 2728 306 2450 153 
Q 2172 0 1784 0 
Q 1141 0 747 490 
Q 353 981 353 1791 
Q 353 2603 747 3093 
Q 1141 3584 1784 3584 
Q 2172 3584 2450 3431 
Q 2728 3278 2906 2969 
L 2906 3500 
L 3481 3500 
L 3481 434 
z
" transform="scale(0.015625)"/>
      <path id="DejaVuSans-53" d="M 3425 4513 
L 3425 3897 
Q 3066 4069 2747 4153 
Q 2428 4238 2131 4238 
Q 1616 4238 1336 4038 
Q 1056 3838 1056 3469 
Q 1056 3159 1242 3001 
Q 1428 2844 1947 2747 
L 2328 2669 
Q 3034 2534 3370 2195 
Q 3706 1856 3706 1288 
Q 3706 609 3251 259 
Q 2797 -91 1919 -91 
Q 1588 -91 1214 -16 
Q 841 59 441 206 
L 441 856 
Q 825 641 1194 531 
Q 1563 422 1919 422 
Q 2459 422 2753 634 
Q 3047 847 3047 1241 
Q 3047 1584 2836 1778 
Q 2625 1972 2144 2069 
L 1759 2144 
Q 1053 2284 737 2584 
Q 422 2884 422 3419 
Q 422 4038 858 4394 
Q 1294 4750 2059 4750 
Q 2388 4750 2728 4690 
Q 3069 4631 3425 4513 
z
" transform="scale(0.015625)"/>
      <path id="DejaVuSans-70" d="M 1159 525 
L 1159 -1331 
L 581 -1331 
L 581 3500 
L 1159 3500 
L 1159 2969 
Q 1341 3281 1617 3432 
Q 1894 3584 2278 3584 
Q 2916 3584 3314 3078 
Q 3713 2572 3713 1747 
Q 3713 922 3314 415 
Q 2916 -91 2278 -91 
Q 1894 -91 1617 61 
Q 1341 213 1159 525 
z
M 3116 1747 
Q 3116 2381 2855 2742 
Q 2594 3103 2138 3103 
Q 1681 3103 1420 2742 
Q 1159 2381 1159 1747 
Q 1159 1113 1420 752 
Q 1681 391 2138 391 
Q 2594 391 2855 752 
Q 3116 1113 3116 1747 
z
" transform="scale(0.015625)"/>
      <path id="DejaVuSans-72" d="M 2631 2963 
Q 2534 3019 2420 3045 
Q 2306 3072 2169 3072 
Q 1681 3072 1420 2755 
Q 1159 2438 1159 1844 
L 1159 0 
L 581 0 
L 581 3500 
L 1159 3500 
L 1159 2956 
Q 1341 3275 1631 3429 
Q 1922 3584 2338 3584 
Q 2397 3584 2469 3576 
Q 2541 3569 2628 3553 
L 2631 2963 
z
" transform="scale(0.015625)"/>
      <path id="DejaVuSans-73" d="M 2834 3397 
L 2834 2853 
Q 2591 2978 2328 3040 
Q 2066 3103 1784 3103 
Q 1356 3103 1142 2972 
Q 928 2841 928 2578 
Q 928 2378 1081 2264 
Q 1234 2150 1697 2047 
L 1894 2003 
Q 2506 1872 2764 1633 
Q 3022 1394 3022 966 
Q 3022 478 2636 193 
Q 2250 -91 1575 -91 
Q 1294 -91 989 -36 
Q 684 19 347 128 
L 347 722 
Q 666 556 975 473 
Q 1284 391 1588 391 
Q 1994 391 2212 530 
Q 2431 669 2431 922 
Q 2431 1156 2273 1281 
Q 2116 1406 1581 1522 
L 1381 1569 
Q 847 1681 609 1914 
Q 372 2147 372 2553 
Q 372 3047 722 3315 
Q 1072 3584 1716 3584 
Q 2034 3584 2315 3537 
Q 2597 3491 2834 3397 
z
" transform="scale(0.015625)"/>
      <path id="DejaVuSans-20" transform="scale(0.015625)"/>
     </defs>
     <use xlink:href="#DejaVuSans-4e"/>
     <use xlink:href="#DejaVuSans-6f" x="74.804688"/>
     <use xlink:href="#DejaVuSans-76" x="135.986328"/>
     <use xlink:href="#DejaVuSans-65" x="195.166016"/>
     <use xlink:href="#DejaVuSans-6c" x="256.689453"/>
     <use xlink:href="#DejaVuSans-2d" x="284.472656"/>
     <use xlink:href="#DejaVuSans-4e" x="320.556641"/>
     <use xlink:href="#DejaVuSans-6f" x="395.361328"/>
     <use xlink:href="#DejaVuSans-2d" x="458.417969"/>
     <use xlink:href="#DejaVuSans-43" x="494.501953"/>
     <use xlink:href="#DejaVuSans-68" x="564.326172"/>
     <use xlink:href="#DejaVuSans-61" x="627.705078"/>
     <use xlink:href="#DejaVuSans-6e" x="688.984375"/>
     <use xlink:href="#DejaVuSans-67" x="752.363281"/>
     <use xlink:href="#DejaVuSans-65" x="815.839844"/>
     <use xlink:href="#DejaVuSans-2d" x="877.363281"/>
     <use xlink:href="#DejaVuSans-53" x="913.447266"/>
     <use xlink:href="#DejaVuSans-70" x="976.923828"/>
     <use xlink:href="#DejaVuSans-61" x="1040.400391"/>
     <use xlink:href="#DejaVuSans-72" x="1101.679688"/>
     <use xlink:href="#DejaVuSans-73" x="1142.792969"/>
     <use xlink:href="#DejaVuSans-65" x="1194.892578"/>
     <use xlink:href="#DejaVuSans-20" x="1256.416016"/>
     <use xlink:href="#DejaVuSans-76" x="1288.203125"/>
     <use xlink:href="#DejaVuSans-73" x="1347.382812"/>
     <use xlink:href="#DejaVuSans-20" x="1399.482422"/>
     <use xlink:href="#DejaVuSans-4e" x="1431.269531"/>
     <use xlink:href="#DejaVuSans-6f" x="1506.074219"/>
     <use xlink:href="#DejaVuSans-76" x="1567.255859"/>
     <use xlink:href="#DejaVuSans-65" x="1626.435547"/>
     <use xlink:href="#DejaVuSans-6c" x="1687.958984"/>
     <use xlink:href="#DejaVuSans-2d" x="1715.742188"/>
     <use xlink:href="#DejaVuSans-43" x="1751.826172"/>
     <use xlink:href="#DejaVuSans-68" x="1821.650391"/>
     <use xlink:href="#DejaVuSans-61" x="1885.029297"/>
     <use xlink:href="#DejaVuSans-6e" x="1946.308594"/>
     <use xlink:href="#DejaVuSans-67" x="2009.6875"/>
     <use xlink:href="#DejaVuSans-65" x="2073.164062"/>
     <use xlink:href="#DejaVuSans-2d" x="2134.6875"/>
     <use xlink:href="#DejaVuSans-53" x="2170.771484"/>
     <use xlink:href="#DejaVuSans-70" x="2234.248047"/>
     <use xlink:href="#DejaVuSans-61" x="2297.724609"/>
     <use xlink:href="#DejaVuSans-72" x="2359.003906"/>
     <use xlink:href="#DejaVuSans-73" x="2400.117188"/>
     <use xlink:href="#DejaVuSans-65" x="2452.216797"/>
    </g>
   </g>
  </g>
 </g>
 <defs>
  <clipPath id="p40dbf68de2">
   <rect x="58.752" y="41.472" width="354.816" height="266.112"/>
  </clipPath>
 </defs>
</svg>
